<svg xmlns="http://www.w3.org/2000/svg" width="469.56" height="144.17" viewBox="0 0 469.56 144.17"><title>Artboard 70</title><path d="M249,64.4V83.55h-1.38a.6.6,0,0,1-.63-.48l-.2-1.6a7.25,7.25,0,0,1-1.93,1.63,4.85,4.85,0,0,1-2.49.63,4.78,4.78,0,0,1-2.06-.44A4.2,4.2,0,0,1,238.75,82a5.86,5.86,0,0,1-1-2.1,10.62,10.62,0,0,1-.35-2.9,9.06,9.06,0,0,1,.39-2.71,6.79,6.79,0,0,1,1.11-2.18,5.18,5.18,0,0,1,4.18-2,4.87,4.87,0,0,1,2.07.41,5.18,5.18,0,0,1,1.54,1.14V64.4Zm-2.32,9.11a3.72,3.72,0,0,0-1.4-1.21A4.05,4.05,0,0,0,243.6,72a3.33,3.33,0,0,0-2.82,1.31,6.15,6.15,0,0,0-1,3.75,9.33,9.33,0,0,0,.22,2.2,4.2,4.2,0,0,0,.65,1.51,2.62,2.62,0,0,0,1.05.86,3.4,3.4,0,0,0,1.42.28,3.84,3.84,0,0,0,2-.52,5.81,5.81,0,0,0,1.56-1.47Z" style="fill:#282828"/><path d="M263.36,81.7a4.25,4.25,0,0,1-1,.9,6.66,6.66,0,0,1-1.28.64,9.42,9.42,0,0,1-1.41.37,8.93,8.93,0,0,1-1.44.12,6.68,6.68,0,0,1-2.52-.46,5.58,5.58,0,0,1-2-1.35,6.19,6.19,0,0,1-1.3-2.21,8.73,8.73,0,0,1-.47-3,7.76,7.76,0,0,1,.42-2.58,5.94,5.94,0,0,1,1.22-2.07,5.41,5.41,0,0,1,1.93-1.38,6.45,6.45,0,0,1,2.58-.5,5.8,5.8,0,0,1,2.19.4A4.87,4.87,0,0,1,262,71.71a5.24,5.24,0,0,1,1.15,1.85,6.94,6.94,0,0,1,.41,2.5,1.52,1.52,0,0,1-.11.73A.49.49,0,0,1,263,77h-8.8a7.66,7.66,0,0,0,.34,2.17,4.31,4.31,0,0,0,.85,1.54,3.48,3.48,0,0,0,1.3.92,4.35,4.35,0,0,0,1.69.31,5.09,5.09,0,0,0,1.5-.2,7.24,7.24,0,0,0,1.09-.44c.3-.15.55-.3.76-.43a1,1,0,0,1,.53-.2.51.51,0,0,1,.44.22Zm-1.87-6.17a4.64,4.64,0,0,0-.23-1.48,3.31,3.31,0,0,0-.66-1.16,3.19,3.19,0,0,0-1.06-.75,4,4,0,0,0-4.05.7,4.55,4.55,0,0,0-1.21,2.69Z" style="fill:#282828"/><path d="M267.13,83.55V72.35l-1.46-.17a1.16,1.16,0,0,1-.45-.2.48.48,0,0,1-.17-.39v-1h2.08V69.36a5.63,5.63,0,0,1,.32-2,4,4,0,0,1,.91-1.49,3.9,3.9,0,0,1,1.42-.91,5.24,5.24,0,0,1,1.87-.32,4.76,4.76,0,0,1,1.63.27l0,1.15a.35.35,0,0,1-.35.34c-.21,0-.5,0-.85,0a3.73,3.73,0,0,0-1.09.15,2,2,0,0,0-.83.51,2.14,2.14,0,0,0-.54.92,4.48,4.48,0,0,0-.19,1.42v1.21h3.79v1.67h-3.72V83.55Z" style="fill:#282828"/><path d="M285.6,83.76a3.15,3.15,0,0,1-2.4-.88,3.45,3.45,0,0,1-.84-2.5V72.31h-1.58a.51.51,0,0,1-.35-.12.46.46,0,0,1-.15-.38v-.92l2.16-.28.54-4.07a.56.56,0,0,1,.17-.32.52.52,0,0,1,.36-.12h1.17v4.54h3.81v1.67h-3.81v7.91a1.66,1.66,0,0,0,.4,1.23,1.42,1.42,0,0,0,1,.41,2,2,0,0,0,.63-.1,4.09,4.09,0,0,0,.46-.21l.33-.22a.55.55,0,0,1,.24-.1.42.42,0,0,1,.33.22l.68,1.11a4.47,4.47,0,0,1-1.45.88A4.92,4.92,0,0,1,285.6,83.76Z" style="fill:#282828"/><path d="M301.5,81.7a4.25,4.25,0,0,1-1,.9,6.38,6.38,0,0,1-1.28.64,9.11,9.11,0,0,1-1.41.37,8.75,8.75,0,0,1-1.44.12,6.68,6.68,0,0,1-2.52-.46,5.67,5.67,0,0,1-2-1.35,6.34,6.34,0,0,1-1.3-2.21,9,9,0,0,1-.47-3,7.76,7.76,0,0,1,.42-2.58,5.94,5.94,0,0,1,1.22-2.07,5.45,5.45,0,0,1,1.94-1.38,6.4,6.4,0,0,1,2.57-.5,5.8,5.8,0,0,1,2.19.4,4.87,4.87,0,0,1,1.74,1.14,5.24,5.24,0,0,1,1.15,1.85,6.93,6.93,0,0,1,.42,2.5,1.49,1.49,0,0,1-.12.73.48.48,0,0,1-.44.18h-8.8a7.66,7.66,0,0,0,.34,2.17,4.46,4.46,0,0,0,.85,1.54,3.48,3.48,0,0,0,1.3.92,4.39,4.39,0,0,0,1.69.31,5.21,5.21,0,0,0,1.51-.2,7.09,7.09,0,0,0,1.08-.44,7.93,7.93,0,0,0,.76-.43,1,1,0,0,1,.53-.2.5.5,0,0,1,.44.22Zm-1.87-6.17a4.64,4.64,0,0,0-.23-1.48,3.31,3.31,0,0,0-.66-1.16,3.1,3.1,0,0,0-1.06-.75,4,4,0,0,0-4.05.7,4.49,4.49,0,0,0-1.2,2.69Z" style="fill:#282828"/><path d="M312.21,72.55a.51.51,0,0,1-.48.29.86.86,0,0,1-.44-.15l-.6-.32a6.86,6.86,0,0,0-.86-.32,4.06,4.06,0,0,0-1.17-.15,3.41,3.41,0,0,0-1.05.15,2.42,2.42,0,0,0-.8.41,1.82,1.82,0,0,0-.51.6,1.72,1.72,0,0,0-.17.75,1.29,1.29,0,0,0,.29.85,2.6,2.6,0,0,0,.77.58,8.13,8.13,0,0,0,1.1.44l1.25.4c.43.14.85.3,1.26.47a4.91,4.91,0,0,1,1.09.65A2.84,2.84,0,0,1,313,79.52a4.26,4.26,0,0,1-.32,1.68,3.76,3.76,0,0,1-1,1.34,4.75,4.75,0,0,1-1.56.89,6.37,6.37,0,0,1-2.14.33,6.61,6.61,0,0,1-2.49-.45,6.46,6.46,0,0,1-1.9-1.15l.55-.89a.87.87,0,0,1,.24-.26.7.7,0,0,1,.37-.09.87.87,0,0,1,.49.18c.17.12.38.26.63.41a5.25,5.25,0,0,0,.91.4,4.12,4.12,0,0,0,1.32.18,3.77,3.77,0,0,0,1.18-.17,2.59,2.59,0,0,0,.85-.48,1.85,1.85,0,0,0,.5-.69,2.08,2.08,0,0,0,.16-.83,1.35,1.35,0,0,0-.29-.9,2.27,2.27,0,0,0-.77-.61,6.62,6.62,0,0,0-1.1-.45l-1.26-.39q-.64-.21-1.26-.48a4,4,0,0,1-1.1-.67,3.17,3.17,0,0,1-.78-1,3.3,3.3,0,0,1-.29-1.44,3.67,3.67,0,0,1,.31-1.45,3.58,3.58,0,0,1,.91-1.22,4.56,4.56,0,0,1,1.47-.84,5.86,5.86,0,0,1,2-.31,6.29,6.29,0,0,1,2.33.41,5.55,5.55,0,0,1,1.79,1.12Z" style="fill:#282828"/><path d="M319.84,83.76a3.15,3.15,0,0,1-2.4-.88,3.49,3.49,0,0,1-.83-2.5V72.31H315a.51.51,0,0,1-.35-.12.46.46,0,0,1-.14-.38v-.92l2.15-.28.54-4.07a.56.56,0,0,1,.17-.32.52.52,0,0,1,.36-.12h1.17v4.54h3.81v1.67h-3.81v7.91a1.66,1.66,0,0,0,.4,1.23,1.42,1.42,0,0,0,1,.41,1.89,1.89,0,0,0,.63-.1,4.32,4.32,0,0,0,.47-.21l.33-.22a.47.47,0,0,1,.24-.1.4.4,0,0,1,.32.22l.68,1.11a4.53,4.53,0,0,1-1.44.88A5,5,0,0,1,319.84,83.76Z" style="fill:#282828"/><path d="M326.47,75.37a20.72,20.72,0,0,0,2.78,10.4.72.72,0,0,1,.11.62.83.83,0,0,1-.3.34l-1,.63a23.32,23.32,0,0,1-1.65-3,19.28,19.28,0,0,1-1.11-3,20.77,20.77,0,0,1-.62-3,25.14,25.14,0,0,1,0-6.17,20.22,20.22,0,0,1,.62-3,19.28,19.28,0,0,1,1.11-3,24.12,24.12,0,0,1,1.65-3l1,.64a.85.85,0,0,1,.3.35.68.68,0,0,1-.11.6,20.72,20.72,0,0,0-2.78,10.4Z" style="fill:#282828"/><path d="M331.23,72.24a7.66,7.66,0,0,1,2.35-1.58,7.43,7.43,0,0,1,2.8-.52,5,5,0,0,1,2,.37,3.94,3.94,0,0,1,1.44,1,4.22,4.22,0,0,1,.89,1.58,6.49,6.49,0,0,1,.3,2v8.43h-1a1.06,1.06,0,0,1-.52-.11.73.73,0,0,1-.28-.44l-.27-1.25a10.6,10.6,0,0,1-1,.85,5.54,5.54,0,0,1-1,.63,5.46,5.46,0,0,1-1.16.39,6.41,6.41,0,0,1-1.37.14,4.84,4.84,0,0,1-1.45-.22,3.32,3.32,0,0,1-1.17-.64,3.06,3.06,0,0,1-.8-1.09,3.86,3.86,0,0,1-.29-1.55,2.85,2.85,0,0,1,.43-1.5,3.78,3.78,0,0,1,1.39-1.28,9,9,0,0,1,2.51-.92,18.69,18.69,0,0,1,3.8-.41v-1A3.55,3.55,0,0,0,338,72.8a2.38,2.38,0,0,0-1.93-.78,4.25,4.25,0,0,0-1.44.21,4.9,4.9,0,0,0-1,.48l-.73.48a1,1,0,0,1-.6.22.65.65,0,0,1-.41-.13,1.15,1.15,0,0,1-.28-.3Zm7.48,5.38a19.34,19.34,0,0,0-2.73.25,7.78,7.78,0,0,0-1.83.53,2.53,2.53,0,0,0-1,.77,1.64,1.64,0,0,0-.32,1,2.22,2.22,0,0,0,.17.9,1.83,1.83,0,0,0,.46.62,1.88,1.88,0,0,0,.69.35,3.37,3.37,0,0,0,.86.11,4.84,4.84,0,0,0,1.11-.12,5,5,0,0,0,1-.36,5.75,5.75,0,0,0,.86-.56,7.79,7.79,0,0,0,.8-.74Z" style="fill:#ccab23"/><path d="M344.35,86.69a.57.57,0,0,1-.15-.17.5.5,0,0,1,0-.19.41.41,0,0,1,.05-.18,1.15,1.15,0,0,1,.14-.17c.09-.1.2-.22.33-.38a4.37,4.37,0,0,0,.41-.55,4.66,4.66,0,0,0,.38-.7,3.27,3.27,0,0,0,.26-.82l-.09,0h-.08a1.44,1.44,0,0,1-1.1-.45,1.61,1.61,0,0,1-.42-1.15,1.42,1.42,0,0,1,.42-1,1.5,1.5,0,0,1,1.13-.43,1.59,1.59,0,0,1,.68.14,1.54,1.54,0,0,1,.51.4,1.88,1.88,0,0,1,.3.58,2.39,2.39,0,0,1,.1.73,4.74,4.74,0,0,1-.16,1.21,6.18,6.18,0,0,1-.48,1.25,7.84,7.84,0,0,1-.77,1.2,7.57,7.57,0,0,1-1,1.08Z" style="fill:#282828"/><path d="M359.38,72.28a6.8,6.8,0,0,1,1.87-1.54,5,5,0,0,1,2.42-.57,4.84,4.84,0,0,1,2.08.44,4.35,4.35,0,0,1,1.58,1.28,6.08,6.08,0,0,1,1,2,9.65,9.65,0,0,1,.34,2.69,10.24,10.24,0,0,1-.39,2.91,6.54,6.54,0,0,1-1.12,2.24,5.24,5.24,0,0,1-1.79,1.45,5.35,5.35,0,0,1-2.37.51,4.49,4.49,0,0,1-2.19-.49,4.7,4.7,0,0,1-1.55-1.38l-.12,1.19a.56.56,0,0,1-.6.5h-1.49V64.4h2.33Zm0,8.1a3.67,3.67,0,0,0,1.39,1.2,3.88,3.88,0,0,0,1.67.35,3.34,3.34,0,0,0,2.85-1.31,6.44,6.44,0,0,0,1-3.91,5.81,5.81,0,0,0-.88-3.56A3,3,0,0,0,362.9,72a3.62,3.62,0,0,0-2,.52A5.48,5.48,0,0,0,359.38,74Z" style="fill:#7a22e0"/><path d="M372.78,75.37A20.72,20.72,0,0,0,370,65a1,1,0,0,1-.13-.34.45.45,0,0,1,0-.26.51.51,0,0,1,.12-.2.9.9,0,0,1,.19-.15l1-.64a25.63,25.63,0,0,1,1.66,3,20.42,20.42,0,0,1,1.72,5.93,25.14,25.14,0,0,1,0,6.17,20.77,20.77,0,0,1-.62,3,20.33,20.33,0,0,1-1.1,3,24.74,24.74,0,0,1-1.66,3l-1-.63a.9.9,0,0,1-.19-.15.47.47,0,0,1-.12-.19.49.49,0,0,1,0-.27,1,1,0,0,1,.13-.35,20.72,20.72,0,0,0,2.78-10.4Z" style="fill:#282828"/><path d="M377.59,72.37a1.69,1.69,0,0,1,.12-.64,1.67,1.67,0,0,1,.34-.52,1.54,1.54,0,0,1,.51-.35,1.56,1.56,0,0,1,.64-.13,1.53,1.53,0,0,1,.64.13,1.7,1.7,0,0,1,.52.35,1.9,1.9,0,0,1,.35.52,1.7,1.7,0,0,1,.13.64,1.66,1.66,0,0,1-.13.64,1.71,1.71,0,0,1-.35.51,1.54,1.54,0,0,1-.52.35,1.69,1.69,0,0,1-.64.12,1.73,1.73,0,0,1-.64-.12,1.41,1.41,0,0,1-.51-.35,1.52,1.52,0,0,1-.34-.51A1.66,1.66,0,0,1,377.59,72.37Zm0,9.75a1.69,1.69,0,0,1,.12-.64,1.67,1.67,0,0,1,.34-.52,1.54,1.54,0,0,1,.51-.35,1.56,1.56,0,0,1,.64-.13,1.53,1.53,0,0,1,.64.13,1.7,1.7,0,0,1,.52.35,1.9,1.9,0,0,1,.35.52,1.7,1.7,0,0,1,.13.64,1.66,1.66,0,0,1-.13.64,1.71,1.71,0,0,1-.35.51,1.54,1.54,0,0,1-.52.35,1.69,1.69,0,0,1-.64.12,1.73,1.73,0,0,1-.64-.12,1.41,1.41,0,0,1-.51-.35,1.52,1.52,0,0,1-.34-.51A1.66,1.66,0,0,1,377.59,82.12Z" style="fill:#282828"/><path d="M12.43,83.75a3.18,3.18,0,0,1-2.4-.87,3.46,3.46,0,0,1-.84-2.51V72.31H7.61a.51.51,0,0,1-.35-.12.46.46,0,0,1-.15-.38v-.93l2.16-.27.53-4.07a.64.64,0,0,1,.18-.32.52.52,0,0,1,.36-.12h1.17v4.54h3.8v1.67h-3.8v7.91a1.67,1.67,0,0,0,.4,1.23,1.4,1.4,0,0,0,1,.41,2,2,0,0,0,.63-.1,2.83,2.83,0,0,0,.46-.22,3.89,3.89,0,0,0,.33-.21.4.4,0,0,1,.24-.1.43.43,0,0,1,.33.22l.67,1.11a4.42,4.42,0,0,1-1.44.88A4.91,4.91,0,0,1,12.43,83.75Z" style="fill:#282828"/><path d="M28.33,81.7a4.25,4.25,0,0,1-1,.9,5.86,5.86,0,0,1-1.28.63,7.3,7.3,0,0,1-1.41.37,8,8,0,0,1-1.44.13,6.89,6.89,0,0,1-2.52-.46,5.48,5.48,0,0,1-2-1.36,6.06,6.06,0,0,1-1.3-2.2,8.73,8.73,0,0,1-.47-3,7.76,7.76,0,0,1,.42-2.58,5.94,5.94,0,0,1,1.22-2.07,5.41,5.41,0,0,1,1.93-1.38,6.45,6.45,0,0,1,2.58-.5,5.8,5.8,0,0,1,2.19.4A4.87,4.87,0,0,1,27,71.71a5.24,5.24,0,0,1,1.15,1.85,6.93,6.93,0,0,1,.42,2.5,1.49,1.49,0,0,1-.12.73A.49.49,0,0,1,28,77h-8.8a7.66,7.66,0,0,0,.34,2.17,4.39,4.39,0,0,0,.85,1.54,3.48,3.48,0,0,0,1.3.92,4.35,4.35,0,0,0,1.69.31,5.09,5.09,0,0,0,1.5-.2A7.24,7.24,0,0,0,26,81.27a7.93,7.93,0,0,0,.76-.43,1,1,0,0,1,.53-.21.53.53,0,0,1,.44.22Zm-1.87-6.18a4.62,4.62,0,0,0-.23-1.47,3.31,3.31,0,0,0-.66-1.16,3.19,3.19,0,0,0-1.06-.75,3.56,3.56,0,0,0-1.42-.27,3.56,3.56,0,0,0-2.63,1,4.55,4.55,0,0,0-1.21,2.68Z" style="fill:#282828"/><path d="M39,72.55a.5.5,0,0,1-.48.28.83.83,0,0,1-.44-.14l-.61-.32a6.67,6.67,0,0,0-.85-.32,4.06,4.06,0,0,0-1.17-.15,3.41,3.41,0,0,0-1.05.15,2.42,2.42,0,0,0-.8.41,1.82,1.82,0,0,0-.51.6,1.72,1.72,0,0,0-.17.75,1.19,1.19,0,0,0,.29.84,2.49,2.49,0,0,0,.77.59,8,8,0,0,0,1.09.44c.41.12.83.25,1.26.4s.85.3,1.25.47a4.77,4.77,0,0,1,1.1.65,3,3,0,0,1,.77,1,3,3,0,0,1,.29,1.36,4.45,4.45,0,0,1-.32,1.68,3.66,3.66,0,0,1-1,1.34,4.6,4.6,0,0,1-1.55.89,6.38,6.38,0,0,1-2.14.32,6.78,6.78,0,0,1-2.49-.44,6.46,6.46,0,0,1-1.9-1.15l.54-.89A.89.89,0,0,1,31.2,81a.7.7,0,0,1,.37-.09.87.87,0,0,1,.49.18c.17.12.38.26.63.41a5.48,5.48,0,0,0,.9.4,4.23,4.23,0,0,0,1.33.18,3.53,3.53,0,0,0,1.18-.18,2.4,2.4,0,0,0,.85-.47,2,2,0,0,0,.5-.69,2.12,2.12,0,0,0,.16-.83,1.37,1.37,0,0,0-.29-.9,2.58,2.58,0,0,0-.78-.62A7.48,7.48,0,0,0,35.45,78q-.63-.18-1.26-.39c-.43-.14-.85-.3-1.27-.48a4.43,4.43,0,0,1-1.09-.67,3,3,0,0,1-.78-1A3.33,3.33,0,0,1,30.76,74a3.5,3.5,0,0,1,.31-1.45A3.58,3.58,0,0,1,32,71.32a4.56,4.56,0,0,1,1.47-.84,5.82,5.82,0,0,1,2-.31,6.32,6.32,0,0,1,2.33.41,5.55,5.55,0,0,1,1.79,1.12Z" style="fill:#282828"/><path d="M46.67,83.75a3.18,3.18,0,0,1-2.4-.87,3.46,3.46,0,0,1-.84-2.51V72.31H41.85a.51.51,0,0,1-.35-.12.46.46,0,0,1-.15-.38v-.93l2.16-.27.54-4.07a.56.56,0,0,1,.17-.32.52.52,0,0,1,.36-.12h1.17v4.54h3.81v1.67H45.75v7.91a1.67,1.67,0,0,0,.4,1.23,1.42,1.42,0,0,0,1,.41,2,2,0,0,0,.63-.1,2.83,2.83,0,0,0,.46-.22,3.89,3.89,0,0,0,.33-.21.45.45,0,0,1,.25-.1.42.42,0,0,1,.32.22l.68,1.11a4.47,4.47,0,0,1-1.45.88A4.91,4.91,0,0,1,46.67,83.75Z" style="fill:#282828"/><path d="M53.3,75.37a20.72,20.72,0,0,0,2.78,10.4.72.72,0,0,1,.11.62.89.89,0,0,1-.3.34l-1,.62a23.89,23.89,0,0,1-1.66-3,20.33,20.33,0,0,1-1.1-3,20.77,20.77,0,0,1-.62-3,25.14,25.14,0,0,1,0-6.17,20.18,20.18,0,0,1,1.72-5.93,25.63,25.63,0,0,1,1.66-3l1,.64a.89.89,0,0,1,.3.34.7.7,0,0,1-.11.61,20.72,20.72,0,0,0-2.78,10.4Z" style="fill:#282828"/><path d="M70.29,81.78v1.77h-10V81.78h4V69.08c0-.38,0-.77,0-1.16L61,70.77a.75.75,0,0,1-.33.17.87.87,0,0,1-.32,0,.82.82,0,0,1-.26-.1.65.65,0,0,1-.19-.17l-.73-1,5.55-4.8h1.89v16.9Z" style="fill:#ccab23"/><path d="M85,81.35a.76.76,0,0,1,.82.79v1.41H73.36v-.8a1.31,1.31,0,0,1,.1-.5,1.41,1.41,0,0,1,.33-.49l6-6c.49-.5.94-1,1.35-1.45a11.41,11.41,0,0,0,1-1.39,7.33,7.33,0,0,0,.66-1.43A4.82,4.82,0,0,0,83,70a3.63,3.63,0,0,0-.26-1.44,2.89,2.89,0,0,0-.7-1A3.08,3.08,0,0,0,81,66.9a4.06,4.06,0,0,0-1.32-.2,4,4,0,0,0-1.31.21,3.72,3.72,0,0,0-1.06.57,3.41,3.41,0,0,0-.77.88,3.56,3.56,0,0,0-.45,1.12,1,1,0,0,1-.42.6,1.21,1.21,0,0,1-.75.09L73.74,70a6.68,6.68,0,0,1,.7-2.25,5.46,5.46,0,0,1,3.16-2.66,7.28,7.28,0,0,1,4.43,0,5.05,5.05,0,0,1,1.78,1A4.71,4.71,0,0,1,85,67.71a5.25,5.25,0,0,1,.43,2.19,5.79,5.79,0,0,1-.31,1.93,7.84,7.84,0,0,1-.84,1.69A13.75,13.75,0,0,1,83,75.1c-.47.51-1,1-1.48,1.54l-4.91,5c.34-.09.7-.17,1-.23a7.49,7.49,0,0,1,1-.08Z" style="fill:#ccab23"/><path d="M101.52,74.24a15.07,15.07,0,0,1-.53,4.23,8.79,8.79,0,0,1-1.44,3,5.68,5.68,0,0,1-2.15,1.74,6.29,6.29,0,0,1-2.66.57,6.18,6.18,0,0,1-2.65-.57A5.73,5.73,0,0,1,90,81.43a8.6,8.6,0,0,1-1.43-3,17.51,17.51,0,0,1,0-8.47A8.56,8.56,0,0,1,90,67a5.76,5.76,0,0,1,2.14-1.75,6.18,6.18,0,0,1,2.65-.57,6.29,6.29,0,0,1,2.66.57A5.71,5.71,0,0,1,99.55,67,8.75,8.75,0,0,1,101,70,15.2,15.2,0,0,1,101.52,74.24Zm-2.41,0a15.08,15.08,0,0,0-.36-3.58,6.87,6.87,0,0,0-1-2.34,3.58,3.58,0,0,0-1.39-1.26,3.71,3.71,0,0,0-3.31,0,3.51,3.51,0,0,0-1.39,1.26,7.08,7.08,0,0,0-1,2.34,17.93,17.93,0,0,0,0,7.15,7.11,7.11,0,0,0,1,2.33,3.62,3.62,0,0,0,1.39,1.27,3.79,3.79,0,0,0,3.31,0,3.69,3.69,0,0,0,1.39-1.27,6.9,6.9,0,0,0,1-2.33A15,15,0,0,0,99.11,74.24Z" style="fill:#ccab23"/><path d="M104,86.69a.57.57,0,0,1-.15-.17.5.5,0,0,1,0-.19.31.31,0,0,1,0-.18A1.15,1.15,0,0,1,104,86c.09-.1.2-.22.33-.38a5.24,5.24,0,0,0,.41-.55,4.66,4.66,0,0,0,.38-.7,3.27,3.27,0,0,0,.26-.82l-.09,0h-.08a1.44,1.44,0,0,1-1.1-.45,1.61,1.61,0,0,1-.42-1.15,1.42,1.42,0,0,1,.42-1,1.5,1.5,0,0,1,1.13-.43,1.59,1.59,0,0,1,.68.14,1.54,1.54,0,0,1,.51.4,1.88,1.88,0,0,1,.3.58,2.37,2.37,0,0,1,.1.72,4.82,4.82,0,0,1-.16,1.22,6.18,6.18,0,0,1-.48,1.25,7.84,7.84,0,0,1-.77,1.2,7.57,7.57,0,0,1-1,1.08Z" style="fill:#282828"/><path d="M129.19,76.83v1.32a.51.51,0,0,1-.12.35.46.46,0,0,1-.38.14h-2.32v4.91h-2V78.64h-8.27a.67.67,0,0,1-.45-.14.63.63,0,0,1-.24-.37l-.24-1.19,9.07-12h2.15V76.83Zm-4.84,0V69.14c0-.22,0-.47,0-.74s0-.54.08-.82l-6.79,9.25Z" style="fill:#7a22e0"/><path d="M144.23,74.24a15.1,15.1,0,0,1-.52,4.23,8.79,8.79,0,0,1-1.44,3,5.76,5.76,0,0,1-2.15,1.74,6.49,6.49,0,0,1-5.32,0,5.81,5.81,0,0,1-2.14-1.74,9,9,0,0,1-1.43-3,17.51,17.51,0,0,1,0-8.47,8.93,8.93,0,0,1,1.43-3,5.84,5.84,0,0,1,2.14-1.75,6.49,6.49,0,0,1,5.32,0A5.79,5.79,0,0,1,142.27,67a8.75,8.75,0,0,1,1.44,3A15.22,15.22,0,0,1,144.23,74.24Zm-2.4,0a15.08,15.08,0,0,0-.36-3.58,7.3,7.3,0,0,0-1-2.34,3.54,3.54,0,0,0-1.4-1.26,3.69,3.69,0,0,0-3.3,0,3.51,3.51,0,0,0-1.39,1.26,7.3,7.3,0,0,0-1,2.34,18.43,18.43,0,0,0,0,7.15,7.33,7.33,0,0,0,1,2.33,3.62,3.62,0,0,0,1.39,1.27,3.77,3.77,0,0,0,3.3,0,3.64,3.64,0,0,0,1.4-1.27,7.33,7.33,0,0,0,1-2.33A15,15,0,0,0,141.83,74.24Z" style="fill:#7a22e0"/><path d="M159.35,76.83v1.32a.51.51,0,0,1-.12.35.46.46,0,0,1-.38.14h-2.32v4.91h-2V78.64h-8.26a.67.67,0,0,1-.45-.14.63.63,0,0,1-.24-.37l-.24-1.19,9.06-12h2.16V76.83Zm-4.85,0V69.14c0-.22,0-.47,0-.74s0-.54.08-.82l-6.79,9.25Z" style="fill:#7a22e0"/><path d="M163.85,75.37A20.72,20.72,0,0,0,161.07,65a1.27,1.27,0,0,1-.13-.35.56.56,0,0,1,0-.26.76.76,0,0,1,.12-.19.9.9,0,0,1,.19-.15l1-.64a25.63,25.63,0,0,1,1.66,3,20.18,20.18,0,0,1,1.72,5.93,23.89,23.89,0,0,1,0,6.17,20.77,20.77,0,0,1-.62,3,20.33,20.33,0,0,1-1.1,3,23.89,23.89,0,0,1-1.66,3l-1-.62a.9.9,0,0,1-.19-.15.62.62,0,0,1-.12-.19.6.6,0,0,1,0-.27,1.27,1.27,0,0,1,.13-.35,20.72,20.72,0,0,0,2.78-10.4Z" style="fill:#282828"/><path d="M124.4,13.18a4.1,4.1,0,0,1,1.27-.85,3.82,3.82,0,0,1,1.5-.28,2.71,2.71,0,0,1,1.06.19,2.34,2.34,0,0,1,.78.55,2.2,2.2,0,0,1,.47.85,3.42,3.42,0,0,1,.16,1.09v4.54h-.55a.55.55,0,0,1-.28-.06.4.4,0,0,1-.15-.24l-.14-.67a7.06,7.06,0,0,1-.55.46,3.16,3.16,0,0,1-.56.33,2.13,2.13,0,0,1-.63.21,3.26,3.26,0,0,1-.73.08,2.45,2.45,0,0,1-.78-.12,1.67,1.67,0,0,1-.63-.34,1.61,1.61,0,0,1-.43-.59,1.94,1.94,0,0,1-.16-.84,1.6,1.6,0,0,1,.23-.8A2.11,2.11,0,0,1,125,16a5.1,5.1,0,0,1,1.35-.5,11.18,11.18,0,0,1,2.05-.22v-.55a1.88,1.88,0,0,0-.36-1.25,1.3,1.3,0,0,0-1-.42,2.48,2.48,0,0,0-.78.11,4.54,4.54,0,0,0-.54.26l-.39.26a.56.56,0,0,1-.32.12.38.38,0,0,1-.22-.07.5.5,0,0,1-.15-.17Zm4,2.89a10.8,10.8,0,0,0-1.47.14,4.58,4.58,0,0,0-1,.28,1.38,1.38,0,0,0-.55.42.9.9,0,0,0-.17.53,1.14,1.14,0,0,0,.09.48.76.76,0,0,0,.25.33.93.93,0,0,0,.37.19,1.65,1.65,0,0,0,.46.06,2.77,2.77,0,0,0,.6-.06,2.25,2.25,0,0,0,.51-.2,2.66,2.66,0,0,0,.47-.3,3.93,3.93,0,0,0,.43-.4Z" style="fill:#848484"/><path d="M132.73,13.27a3.78,3.78,0,0,1,1-.88,2.59,2.59,0,0,1,1.34-.34,2.65,2.65,0,0,1,1.11.23,2.21,2.21,0,0,1,.85.7,3.39,3.39,0,0,1,.54,1.13,5.77,5.77,0,0,1,.19,1.57,4.84,4.84,0,0,1-.21,1.45A3.34,3.34,0,0,1,137,18.3a2.8,2.8,0,0,1-1,.78,2.84,2.84,0,0,1-1.29.28,2.53,2.53,0,0,1-1.11-.22,2.59,2.59,0,0,1-.83-.61v3.14h-1.25V12.18h.75a.3.3,0,0,1,.33.25Zm.06,4.29a2,2,0,0,0,.75.65,2.09,2.09,0,0,0,.91.19,1.81,1.81,0,0,0,1.53-.71,3.32,3.32,0,0,0,.53-2,5.23,5.23,0,0,0-.12-1.2,2.33,2.33,0,0,0-.35-.81,1.5,1.5,0,0,0-.57-.47,2.06,2.06,0,0,0-.76-.14,2,2,0,0,0-1.07.28,3,3,0,0,0-.85.79Z" style="fill:#848484"/><path d="M144,13.13h-3.35v6.14h-1.25V12.18H144Z" style="fill:#848484"/><path d="M151.28,12.18l-3.95,9.18a.78.78,0,0,1-.16.22.4.4,0,0,1-.29.09H146l1.3-2.82-2.93-6.67h1.08a.37.37,0,0,1,.26.08.52.52,0,0,1,.13.17l1.89,4.47a4.06,4.06,0,0,1,.19.62q.1-.33.21-.63l1.84-4.46a.43.43,0,0,1,.15-.18.34.34,0,0,1,.22-.07Z" style="fill:#848484"/><path d="M160.28,12.15v7.12h-1.12V14.55a3.32,3.32,0,0,1,0-.43c0-.16,0-.31.07-.45L156.78,18a.39.39,0,0,1-.14.17.38.38,0,0,1-.21.07h-.14a.44.44,0,0,1-.22-.07.5.5,0,0,1-.15-.17l-2.5-4.33c0,.14,0,.29.06.46a3.75,3.75,0,0,1,0,.44v4.72h-1.13V12.15h1a.52.52,0,0,1,.48.28l2.21,3.7a7,7,0,0,1,.29.68,4.2,4.2,0,0,1,.28-.68l2.17-3.7a.5.5,0,0,1,.21-.22.62.62,0,0,1,.26-.06Z" style="fill:#848484"/><path d="M168,18.27a2.36,2.36,0,0,1-.55.49,3.68,3.68,0,0,1-.69.34,5,5,0,0,1-.76.2,5.12,5.12,0,0,1-.78.06,3.68,3.68,0,0,1-1.35-.24,3,3,0,0,1-1.07-.73,3.43,3.43,0,0,1-.71-1.19,5,5,0,0,1-.25-1.62,4.18,4.18,0,0,1,.23-1.39,3.36,3.36,0,0,1,.65-1.12,3.17,3.17,0,0,1,1.05-.74,3.4,3.4,0,0,1,1.38-.27,3,3,0,0,1,1.18.22,2.59,2.59,0,0,1,.94.61,2.88,2.88,0,0,1,.62,1,3.73,3.73,0,0,1,.22,1.34.89.89,0,0,1-.06.4.27.27,0,0,1-.24.09h-4.74a4.34,4.34,0,0,0,.19,1.17,2.29,2.29,0,0,0,.46.83,1.84,1.84,0,0,0,.7.5,2.38,2.38,0,0,0,.91.16,2.8,2.8,0,0,0,.81-.1,4.07,4.07,0,0,0,.58-.24l.41-.23a.48.48,0,0,1,.28-.11.26.26,0,0,1,.24.12ZM167,15a2.53,2.53,0,0,0-.12-.8,1.66,1.66,0,0,0-.36-.62,1.49,1.49,0,0,0-.57-.41,2,2,0,0,0-.76-.14,1.91,1.91,0,0,0-1.42.52,2.47,2.47,0,0,0-.64,1.45Z" style="fill:#848484"/><path d="M175.56,12.18v7.09H174.3V16h-3.4v3.32h-1.25V12.18h1.25V15h3.4V12.18Z" style="fill:#848484"/><path d="M183.42,13.13H180.7v6.14h-1.24V13.13h-2.73v-1h6.69Z" style="fill:#848484"/><path d="M187.31,15a3.73,3.73,0,0,1,1.24.18,2.15,2.15,0,0,1,.8.47,1.7,1.7,0,0,1,.44.68,2.34,2.34,0,0,1,.13.79,2.3,2.3,0,0,1-.17.88,1.89,1.89,0,0,1-.49.7,2.39,2.39,0,0,1-.82.45,3.41,3.41,0,0,1-1.11.17h-2.72V12.18h1.19V15Zm0,3.41a2.06,2.06,0,0,0,.65-.1,1.21,1.21,0,0,0,.46-.26,1.15,1.15,0,0,0,.28-.41,1.35,1.35,0,0,0,.09-.5,1.4,1.4,0,0,0-.08-.47,1,1,0,0,0-.25-.39A1.42,1.42,0,0,0,188,16a2.36,2.36,0,0,0-.7-.1H185.8v2.5Zm5.4-6.18v7.09h-1.25V12.18Z" style="fill:#848484"/><path d="M389.45,22.29H388.2V16.15h-3.4v6.14h-1.25V15.2h5.9Z" style="fill:#848484"/><path d="M391.25,16.2A3.75,3.75,0,0,1,394,15.07a2.66,2.66,0,0,1,1.05.2,2.09,2.09,0,0,1,.78.55,2.31,2.31,0,0,1,.48.84,3.48,3.48,0,0,1,.16,1.1v4.53h-.55a.51.51,0,0,1-.28-.06.41.41,0,0,1-.16-.23l-.14-.67a6.77,6.77,0,0,1-.54.45,3,3,0,0,1-.56.34,3.33,3.33,0,0,1-.63.21,3.38,3.38,0,0,1-.74.07,2.88,2.88,0,0,1-.78-.11,1.77,1.77,0,0,1-.63-.35,1.69,1.69,0,0,1-.43-.58,2.17,2.17,0,0,1-.15-.84,1.51,1.51,0,0,1,.23-.81,2,2,0,0,1,.75-.69,4.86,4.86,0,0,1,1.35-.49,10.17,10.17,0,0,1,2-.22v-.55a1.86,1.86,0,0,0-.36-1.25,1.25,1.25,0,0,0-1-.43,2.15,2.15,0,0,0-.77.12,2.26,2.26,0,0,0-.54.26l-.39.26a.62.62,0,0,1-.33.11.34.34,0,0,1-.22-.07.46.46,0,0,1-.15-.16Zm4,2.9a9.66,9.66,0,0,0-1.47.14,3.86,3.86,0,0,0-1,.28,1.41,1.41,0,0,0-.56.41.93.93,0,0,0-.17.53,1.22,1.22,0,0,0,.09.49,1,1,0,0,0,.25.33,1,1,0,0,0,.37.19,1.76,1.76,0,0,0,.46.06,2.25,2.25,0,0,0,.6-.07,2.14,2.14,0,0,0,.52-.19,3.29,3.29,0,0,0,.46-.3,4,4,0,0,0,.43-.4Z" style="fill:#848484"/><path d="M399.58,16.3a3.49,3.49,0,0,1,1-.89,2.71,2.71,0,0,1,1.35-.34,2.51,2.51,0,0,1,1.11.24,2.45,2.45,0,0,1,.85.69,3.34,3.34,0,0,1,.53,1.14,5.65,5.65,0,0,1,.19,1.56,4.91,4.91,0,0,1-.21,1.46,3.59,3.59,0,0,1-.6,1.17,2.93,2.93,0,0,1-1,.78,2.83,2.83,0,0,1-1.28.28,2.54,2.54,0,0,1-1.12-.22,2.7,2.7,0,0,1-.82-.61v3.13h-1.25V15.2h.75a.3.3,0,0,1,.32.26Zm.06,4.28a2,2,0,0,0,.75.65,2.06,2.06,0,0,0,.91.19,1.78,1.78,0,0,0,1.52-.7,3.28,3.28,0,0,0,.54-2,5.09,5.09,0,0,0-.13-1.19,2.47,2.47,0,0,0-.35-.82,1.34,1.34,0,0,0-.57-.46,1.84,1.84,0,0,0-.76-.15,2.08,2.08,0,0,0-1.07.28,3.26,3.26,0,0,0-.84.79Z" style="fill:#848484"/><path d="M406,16.2a4.22,4.22,0,0,1,1.27-.85,4.06,4.06,0,0,1,1.51-.28,2.69,2.69,0,0,1,1.05.2,2.09,2.09,0,0,1,.78.55,2.31,2.31,0,0,1,.48.84,3.79,3.79,0,0,1,.16,1.1v4.53h-.56a.55.55,0,0,1-.28-.06.46.46,0,0,1-.15-.23l-.14-.67a6.83,6.83,0,0,1-.55.45,2.46,2.46,0,0,1-.56.34,3,3,0,0,1-.62.21,3.38,3.38,0,0,1-.74.07,2.77,2.77,0,0,1-.78-.11,1.77,1.77,0,0,1-.63-.35,1.69,1.69,0,0,1-.43-.58,2.17,2.17,0,0,1-.16-.84,1.61,1.61,0,0,1,.23-.81,2.11,2.11,0,0,1,.75-.69,5.12,5.12,0,0,1,1.35-.49,10.36,10.36,0,0,1,2.05-.22v-.55a1.86,1.86,0,0,0-.36-1.25,1.26,1.26,0,0,0-1-.43,2.11,2.11,0,0,0-.77.12,2.26,2.26,0,0,0-.54.26,4,4,0,0,0-.4.26.56.56,0,0,1-.32.11.34.34,0,0,1-.22-.07.46.46,0,0,1-.15-.16Zm4,2.9a9.53,9.53,0,0,0-1.47.14,3.86,3.86,0,0,0-1,.28,1.41,1.41,0,0,0-.56.41.93.93,0,0,0-.17.53A1.22,1.22,0,0,0,407,21a1,1,0,0,0,.25.33,1,1,0,0,0,.37.19,1.7,1.7,0,0,0,.46.06,2.25,2.25,0,0,0,.6-.07,2.31,2.31,0,0,0,.52-.19,3.29,3.29,0,0,0,.46-.3,4,4,0,0,0,.43-.4Z" style="fill:#848484"/><path d="M421.09,15.18v7.11H420V17.58c0-.13,0-.28,0-.44s0-.31.07-.45L417.59,21a.5.5,0,0,1-.15.17.37.37,0,0,1-.21.06h-.14a.37.37,0,0,1-.21-.06.35.35,0,0,1-.15-.17l-2.51-4.33c0,.14,0,.29.06.46a3.61,3.61,0,0,1,0,.44v4.71h-1.13V15.18h1a.57.57,0,0,1,.25.06.47.47,0,0,1,.22.22l2.21,3.7a5,5,0,0,1,.29.67,4.08,4.08,0,0,1,.28-.67l2.17-3.7a.43.43,0,0,1,.22-.22.58.58,0,0,1,.26-.06Z" style="fill:#848484"/><path d="M428.81,21.3a2.14,2.14,0,0,1-.55.48,3.17,3.17,0,0,1-.69.34,3.86,3.86,0,0,1-.76.2,4.08,4.08,0,0,1-.77.07,3.54,3.54,0,0,1-1.36-.25,3,3,0,0,1-1.07-.73,3.22,3.22,0,0,1-.7-1.18,4.81,4.81,0,0,1-.26-1.63,4.16,4.16,0,0,1,.23-1.38,3.14,3.14,0,0,1,.66-1.12,2.9,2.9,0,0,1,1-.74,3.41,3.41,0,0,1,1.39-.27,3.29,3.29,0,0,1,1.18.21,2.58,2.58,0,0,1,.93.62,2.78,2.78,0,0,1,.62,1,3.82,3.82,0,0,1,.23,1.35.68.68,0,0,1-.07.39.24.24,0,0,1-.23.1h-4.74a4,4,0,0,0,.18,1.17,2.29,2.29,0,0,0,.46.83,1.78,1.78,0,0,0,.7.49,2.42,2.42,0,0,0,.91.17,2.78,2.78,0,0,0,.81-.11,3.68,3.68,0,0,0,.58-.23l.41-.24a.59.59,0,0,1,.29-.11.26.26,0,0,1,.23.12Zm-1-3.33a2.22,2.22,0,0,0-.13-.79,1.93,1.93,0,0,0-.35-.63,1.64,1.64,0,0,0-.57-.4,2.18,2.18,0,0,0-2.18.38,2.39,2.39,0,0,0-.65,1.44Z" style="fill:#848484"/><path d="M436.24,16.15h-2.72v6.14h-1.25V16.15h-2.72V15.2h6.69Z" style="fill:#848484"/><path d="M438.61,16.3a3.65,3.65,0,0,1,1-.89,2.69,2.69,0,0,1,1.34-.34,2.52,2.52,0,0,1,1.12.24A2.33,2.33,0,0,1,443,16a3.18,3.18,0,0,1,.54,1.14,5.65,5.65,0,0,1,.19,1.56,4.91,4.91,0,0,1-.21,1.46,3.59,3.59,0,0,1-.6,1.17,2.93,2.93,0,0,1-1,.78,2.83,2.83,0,0,1-1.28.28,2.54,2.54,0,0,1-1.12-.22,2.7,2.7,0,0,1-.82-.61v3.13h-1.25V15.2h.74a.31.31,0,0,1,.33.26Zm.07,4.28a2,2,0,0,0,.75.65,2.06,2.06,0,0,0,.91.19,1.78,1.78,0,0,0,1.52-.7,3.28,3.28,0,0,0,.54-2,5.09,5.09,0,0,0-.13-1.19,2.47,2.47,0,0,0-.35-.82,1.34,1.34,0,0,0-.57-.46,1.84,1.84,0,0,0-.76-.15,2.08,2.08,0,0,0-1.07.28,3.26,3.26,0,0,0-.84.79Z" style="fill:#848484"/><path d="M448,18a3.92,3.92,0,0,1,1.23.17,2.34,2.34,0,0,1,.81.47,1.71,1.71,0,0,1,.43.68,2.45,2.45,0,0,1,.14.8,2.3,2.3,0,0,1-.17.88,1.8,1.8,0,0,1-.5.69,2.29,2.29,0,0,1-.81.46,3.42,3.42,0,0,1-1.11.16h-2.72V15.2h1.18V18Zm0,3.4a2.08,2.08,0,0,0,.65-.09,1.22,1.22,0,0,0,.46-.27,1.09,1.09,0,0,0,.27-.4,1.4,1.4,0,0,0,.09-.51,1.49,1.49,0,0,0-.07-.47,1,1,0,0,0-.26-.39,1.21,1.21,0,0,0-.46-.26,2.07,2.07,0,0,0-.7-.1h-1.52v2.49Zm5.4-6.18v7.09h-1.25V15.2Z" style="fill:#848484"/><path d="M292.71,115.66l-.17,1a.82.82,0,0,1-.31.55,1.21,1.21,0,0,1-.73.18h-1.79l-.85,4.23h2.33a.65.65,0,0,1,.54.22,1,1,0,0,1,.08.75l-.12.74h-3.08l-1.09,5.5h-1a.65.65,0,0,1-.31-.08.61.61,0,0,1-.24-.21.8.8,0,0,1-.14-.31.94.94,0,0,1,0-.41l.92-4.49h-3.21l-.92,4.61a.94.94,0,0,1-.38.68,1.13,1.13,0,0,1-.67.21h-1l1.1-5.5h-1.9a.58.58,0,0,1-.52-.22,1,1,0,0,1-.09-.74l.11-.75h2.65l.84-4.23h-3l.17-1a.81.81,0,0,1,.3-.55,1.16,1.16,0,0,1,.73-.19h2.06l.94-4.65a1,1,0,0,1,.35-.61,1,1,0,0,1,.67-.22h1l-1.09,5.48H288l1.09-5.48h1a.75.75,0,0,1,.59.24.72.72,0,0,1,.15.63l-.95,4.61Zm-4.92,1.71h-3.21l-.84,4.23H287Z" style="fill:#282828"/><path d="M312.77,109.66v19.15h-1.38a.6.6,0,0,1-.63-.49l-.2-1.59a7.25,7.25,0,0,1-1.93,1.63,4.85,4.85,0,0,1-2.49.63,4.78,4.78,0,0,1-2.06-.44,4.2,4.2,0,0,1-1.57-1.28,6,6,0,0,1-1-2.1,10.62,10.62,0,0,1-.35-2.9,9.06,9.06,0,0,1,.39-2.71,6.52,6.52,0,0,1,1.12-2.18,5.11,5.11,0,0,1,1.78-1.45,5.31,5.31,0,0,1,2.39-.53,4.8,4.8,0,0,1,2.07.41,5.18,5.18,0,0,1,1.54,1.14v-7.29Zm-2.32,9.11a3.75,3.75,0,0,0-1.4-1.22,4,4,0,0,0-1.69-.34,3.33,3.33,0,0,0-2.82,1.31,6.15,6.15,0,0,0-1,3.75,9.33,9.33,0,0,0,.22,2.2,4.28,4.28,0,0,0,.65,1.51,2.62,2.62,0,0,0,1.05.86,3.56,3.56,0,0,0,1.42.28,3.84,3.84,0,0,0,2-.52,5.81,5.81,0,0,0,1.56-1.47Z" style="fill:#282828"/><path d="M322,115.43a6.69,6.69,0,0,1,2.6.48,5.65,5.65,0,0,1,2,1.36,6,6,0,0,1,1.25,2.14,8.29,8.29,0,0,1,.44,2.81,8.19,8.19,0,0,1-.44,2.8,5.86,5.86,0,0,1-1.25,2.13,5.39,5.39,0,0,1-2,1.36,6.69,6.69,0,0,1-2.6.48,6.83,6.83,0,0,1-2.62-.48,5.48,5.48,0,0,1-2-1.36,6,6,0,0,1-1.25-2.13,8.44,8.44,0,0,1-.44-2.8,8.54,8.54,0,0,1,.44-2.81,6.14,6.14,0,0,1,1.25-2.14,5.74,5.74,0,0,1,2-1.36A6.83,6.83,0,0,1,322,115.43Zm0,11.75a3.39,3.39,0,0,0,2.92-1.31,6,6,0,0,0,1-3.64,6.13,6.13,0,0,0-1-3.67,3.41,3.41,0,0,0-2.92-1.31,4,4,0,0,0-1.72.34,3.14,3.14,0,0,0-1.22,1,4.3,4.3,0,0,0-.73,1.57,8.42,8.42,0,0,0-.24,2.1,6,6,0,0,0,1,3.64A3.41,3.41,0,0,0,322,127.18Z" style="fill:#282828"/><path d="M345.5,117.81a.5.5,0,0,1-.48.28.83.83,0,0,1-.44-.14l-.61-.32a6.67,6.67,0,0,0-.85-.32,4.06,4.06,0,0,0-1.17-.15,3.41,3.41,0,0,0-1.05.15,2.42,2.42,0,0,0-.8.41,1.82,1.82,0,0,0-.51.6,1.72,1.72,0,0,0-.17.75,1.19,1.19,0,0,0,.29.84,2.49,2.49,0,0,0,.77.59,6.88,6.88,0,0,0,1.09.43c.41.13.83.26,1.26.41s.85.3,1.25.47a4.77,4.77,0,0,1,1.1.65,3,3,0,0,1,.77,1,3,3,0,0,1,.29,1.36,4.45,4.45,0,0,1-.32,1.68,3.75,3.75,0,0,1-1,1.34,4.6,4.6,0,0,1-1.55.89,6.38,6.38,0,0,1-2.14.32,6.78,6.78,0,0,1-2.49-.44,6.46,6.46,0,0,1-1.9-1.15l.54-.89a.89.89,0,0,1,.25-.26.7.7,0,0,1,.37-.09.87.87,0,0,1,.49.18,7.1,7.1,0,0,0,.63.4,4.74,4.74,0,0,0,.9.41,4.23,4.23,0,0,0,1.33.18,3.53,3.53,0,0,0,1.18-.18,2.4,2.4,0,0,0,.85-.47,2,2,0,0,0,.5-.69,2.12,2.12,0,0,0,.16-.83,1.37,1.37,0,0,0-.29-.9,2.58,2.58,0,0,0-.78-.62,7.48,7.48,0,0,0-1.09-.44q-.63-.18-1.26-.39c-.43-.14-.85-.3-1.27-.48a4.43,4.43,0,0,1-1.09-.67,3,3,0,0,1-.78-1,3.33,3.33,0,0,1-.29-1.44,3.47,3.47,0,0,1,.31-1.45,3.58,3.58,0,0,1,.91-1.22,4.56,4.56,0,0,1,1.47-.84,5.82,5.82,0,0,1,2-.31,6.32,6.32,0,0,1,2.33.41A5.55,5.55,0,0,1,346,117Z" style="fill:#282828"/><path d="M354.64,115.43a6.73,6.73,0,0,1,2.6.48,5.74,5.74,0,0,1,2,1.36,6.14,6.14,0,0,1,1.25,2.14,8.54,8.54,0,0,1,.44,2.81,8.44,8.44,0,0,1-.44,2.8,6,6,0,0,1-1.25,2.13,5.48,5.48,0,0,1-2,1.36,6.73,6.73,0,0,1-2.6.48,6.83,6.83,0,0,1-2.62-.48,5.31,5.31,0,0,1-2-1.36,5.88,5.88,0,0,1-1.26-2.13,8.44,8.44,0,0,1-.43-2.8,8.55,8.55,0,0,1,.43-2.81,6,6,0,0,1,1.26-2.14,5.56,5.56,0,0,1,2-1.36A6.83,6.83,0,0,1,354.64,115.43Zm0,11.75a3.36,3.36,0,0,0,2.91-1.31,6,6,0,0,0,1-3.64,6.13,6.13,0,0,0-1-3.67,3.38,3.38,0,0,0-2.91-1.31,4,4,0,0,0-1.72.34,3.24,3.24,0,0,0-1.23,1,4.46,4.46,0,0,0-.72,1.57,8.42,8.42,0,0,0-.24,2.1,6,6,0,0,0,1,3.64A3.42,3.42,0,0,0,354.64,127.18Z" style="fill:#282828"/><path d="M363.83,128.81V115.64h1.39a.57.57,0,0,1,.61.48l.17,1.35a6.67,6.67,0,0,1,1.64-1.47,3.86,3.86,0,0,1,2.1-.57,3.13,3.13,0,0,1,2.16.74,4.21,4.21,0,0,1,1.19,2,4.26,4.26,0,0,1,.73-1.23,3.92,3.92,0,0,1,1-.86,4,4,0,0,1,1.19-.49,5,5,0,0,1,1.28-.16,4.88,4.88,0,0,1,1.85.33,3.64,3.64,0,0,1,1.38,1,4.4,4.4,0,0,1,.86,1.57,6.87,6.87,0,0,1,.3,2.12v8.39h-2.33v-8.39a3.58,3.58,0,0,0-.67-2.35,2.42,2.42,0,0,0-1.95-.8,2.9,2.9,0,0,0-1.09.21,2.56,2.56,0,0,0-.9.59,2.79,2.79,0,0,0-.62,1,3.82,3.82,0,0,0-.23,1.37v8.39h-2.32v-8.39a3.72,3.72,0,0,0-.64-2.37,2.25,2.25,0,0,0-1.86-.78,2.87,2.87,0,0,0-1.58.47,4.91,4.91,0,0,0-1.34,1.25v9.82Z" style="fill:#282828"/><path d="M395.9,127a4.25,4.25,0,0,1-1,.9,5.65,5.65,0,0,1-1.28.63,7.3,7.3,0,0,1-1.41.37,7.79,7.79,0,0,1-1.44.13,6.89,6.89,0,0,1-2.52-.46,5.56,5.56,0,0,1-2-1.36,6.2,6.2,0,0,1-1.3-2.2,9,9,0,0,1-.47-3,7.76,7.76,0,0,1,.42-2.58,5.94,5.94,0,0,1,1.22-2.07,5.45,5.45,0,0,1,1.94-1.38,6.4,6.4,0,0,1,2.57-.5,5.8,5.8,0,0,1,2.19.4,4.87,4.87,0,0,1,1.74,1.14,5.24,5.24,0,0,1,1.15,1.85,6.93,6.93,0,0,1,.42,2.5,1.49,1.49,0,0,1-.12.73.48.48,0,0,1-.44.18h-8.8a7.66,7.66,0,0,0,.34,2.17,4.56,4.56,0,0,0,.85,1.54,3.48,3.48,0,0,0,1.3.92,4.39,4.39,0,0,0,1.69.31,5.12,5.12,0,0,0,1.51-.2,7.09,7.09,0,0,0,1.08-.44,7.93,7.93,0,0,0,.76-.43,1,1,0,0,1,.53-.21.52.52,0,0,1,.44.22ZM394,120.78a4.62,4.62,0,0,0-.23-1.47,3.31,3.31,0,0,0-.66-1.16,3.1,3.1,0,0,0-1.06-.75,4,4,0,0,0-4.05.7,4.48,4.48,0,0,0-1.2,2.68Z" style="fill:#282828"/><path d="M402.9,129a3.18,3.18,0,0,1-2.4-.87,3.46,3.46,0,0,1-.84-2.51v-8.06h-1.59a.53.53,0,0,1-.35-.12.49.49,0,0,1-.14-.38v-.93l2.16-.27.53-4.07a.62.62,0,0,1,.17-.32.54.54,0,0,1,.36-.12H402v4.54h3.81v1.67H402v7.91a1.67,1.67,0,0,0,.41,1.23,1.39,1.39,0,0,0,1,.41,2,2,0,0,0,.63-.1,3.3,3.3,0,0,0,.46-.22,3.89,3.89,0,0,0,.33-.21.34.34,0,0,1,.56.12l.68,1.11a4.53,4.53,0,0,1-1.44.88A5,5,0,0,1,402.9,129Z" style="fill:#282828"/><path d="M410.5,117.39a7.06,7.06,0,0,1,1.87-1.43,5.14,5.14,0,0,1,2.37-.53,4.7,4.7,0,0,1,1.9.36,3.59,3.59,0,0,1,1.38,1,4.43,4.43,0,0,1,.84,1.58,6.94,6.94,0,0,1,.28,2v8.39h-2.32v-8.39a3.56,3.56,0,0,0-.68-2.32,2.56,2.56,0,0,0-2.08-.83,3.93,3.93,0,0,0-1.92.5,6.2,6.2,0,0,0-1.64,1.34v9.7h-2.33V109.66h2.33Z" style="fill:#282828"/><path d="M425.62,111.5a1.46,1.46,0,0,1-.14.63,1.73,1.73,0,0,1-.36.52,1.7,1.7,0,0,1-.54.36,1.62,1.62,0,0,1-1.27,0,1.68,1.68,0,0,1-.51-.36,1.54,1.54,0,0,1-.35-.52,1.45,1.45,0,0,1-.13-.63,1.56,1.56,0,0,1,.13-.64,1.58,1.58,0,0,1,.35-.53,1.68,1.68,0,0,1,.51-.36,1.62,1.62,0,0,1,1.27,0,1.7,1.7,0,0,1,.54.36,1.77,1.77,0,0,1,.36.53A1.57,1.57,0,0,1,425.62,111.5Zm-.5,4.14v13.17h-2.31V115.64Z" style="fill:#282828"/><path d="M431.1,117.55a8.25,8.25,0,0,1,.91-.87,6,6,0,0,1,1-.67,5.13,5.13,0,0,1,1.15-.43,5.41,5.41,0,0,1,1.31-.15,4.73,4.73,0,0,1,1.9.36,3.59,3.59,0,0,1,1.38,1,4.43,4.43,0,0,1,.84,1.58,6.94,6.94,0,0,1,.28,2v8.39h-2.33v-8.39a3.51,3.51,0,0,0-.68-2.32,2.52,2.52,0,0,0-2.07-.83,3.9,3.9,0,0,0-1.92.5,6.2,6.2,0,0,0-1.64,1.34v9.7h-2.33V115.64h1.39a.57.57,0,0,1,.61.48Z" style="fill:#282828"/><path d="M454.54,116.16V117c0,.29-.18.47-.54.55l-1.5.2a4.3,4.3,0,0,1,.07,3.64,3.78,3.78,0,0,1-1,1.35,4.53,4.53,0,0,1-1.56.86,6.51,6.51,0,0,1-2,.29,6.61,6.61,0,0,1-1.75-.22,2.51,2.51,0,0,0-.63.56.94.94,0,0,0-.22.59.8.8,0,0,0,.38.71,2.78,2.78,0,0,0,1,.34,11.13,11.13,0,0,0,1.42.13l1.64.09a12.46,12.46,0,0,1,1.64.2,4.93,4.93,0,0,1,1.42.46,2.74,2.74,0,0,1,1,.9,2.66,2.66,0,0,1,.38,1.48,3.45,3.45,0,0,1-.42,1.64,4.38,4.38,0,0,1-1.22,1.41,6.2,6.2,0,0,1-1.94,1,8.35,8.35,0,0,1-2.59.37,9.44,9.44,0,0,1-2.52-.29,6,6,0,0,1-1.8-.76,3.31,3.31,0,0,1-1.07-1.11,2.62,2.62,0,0,1-.36-1.32,2.4,2.4,0,0,1,.61-1.65,4.28,4.28,0,0,1,1.68-1.08,2.48,2.48,0,0,1-.93-.7,2.06,2.06,0,0,1-.24-1.77,2.4,2.4,0,0,1,.32-.61,3.94,3.94,0,0,1,.52-.58,3.55,3.55,0,0,1,.73-.48,4.1,4.1,0,0,1-1.69-5.29,3.68,3.68,0,0,1,1-1.34,4.53,4.53,0,0,1,1.58-.85,6.42,6.42,0,0,1,2-.3,6.82,6.82,0,0,1,1.6.18,5.06,5.06,0,0,1,1.35.56Zm-2.35,13.36a1.12,1.12,0,0,0-.27-.78,2,2,0,0,0-.74-.47,5,5,0,0,0-1.07-.24c-.41,0-.84-.08-1.29-.11l-1.39-.08c-.47,0-.92-.07-1.35-.13a3.68,3.68,0,0,0-1.19.86,1.72,1.72,0,0,0-.46,1.2,1.59,1.59,0,0,0,.23.82,1.93,1.93,0,0,0,.69.67,4.35,4.35,0,0,0,1.18.44,7.45,7.45,0,0,0,1.67.16,7.83,7.83,0,0,0,1.68-.17,4.08,4.08,0,0,0,1.25-.48,2.45,2.45,0,0,0,.79-.74A1.75,1.75,0,0,0,452.19,129.52ZM448,122.37a3.57,3.57,0,0,0,1.23-.19,2.53,2.53,0,0,0,.9-.55,2.17,2.17,0,0,0,.54-.84,2.83,2.83,0,0,0,.19-1.07,2.54,2.54,0,0,0-.74-1.92,3.51,3.51,0,0,0-4.26,0,2.54,2.54,0,0,0-.74,1.92,3,3,0,0,0,.19,1.07,2.22,2.22,0,0,0,.56.84,2.58,2.58,0,0,0,.89.55A3.63,3.63,0,0,0,448,122.37Z" style="fill:#282828"/><path d="M85.85,48a45.56,45.56,0,0,1,29.08-20.66" style="fill:none;stroke:#a5a5a5;stroke-miterlimit:10"/><polygon points="90.51 47.35 86.5 46.98 83.98 43.84 83.09 53.33 90.51 47.35" style="fill:#a5a5a5"/><path d="M133.83,47.51a39.28,39.28,0,0,1-.66-14.13" style="fill:none;stroke:#a5a5a5;stroke-miterlimit:10"/><polygon points="136.02 54.22 136.91 43.51 133.74 46.98 129.16 45.95 136.02 54.22" style="fill:#a5a5a5"/><path d="M344,51.42a53.34,53.34,0,0,1,30.69-23.29" style="fill:none;stroke:#a5a5a5;stroke-miterlimit:10"/><polygon points="340.73 57.69 349 50.83 344.31 50.99 341.83 46.99 340.73 57.69" style="fill:#a5a5a5"/><path d="M367.21,46.26a26.82,26.82,0,0,1,7.47-11.1" style="fill:none;stroke:#a5a5a5;stroke-miterlimit:10"/><polygon points="365.74 53.16 371.94 44.38 367.44 45.77 364.01 42.56 365.74 53.16" style="fill:#a5a5a5"/><polyline points="331 99.66 137.56 99.66 137.56 94.1 137.56 87.77" style="fill:none;stroke:#7a22e0;stroke-miterlimit:10"/><polyline points="363.63 94.68 363.63 99.66 345.17 99.66" style="fill:none;stroke:#7a22e0;stroke-miterlimit:10"/><path d="M363.63,95.78l2.2,1.34.05-.08-1.42-3.58c-.28-1.25-.55-2.5-.83-3.75-.27,1.25-.55,2.5-.82,3.75L361.39,97l0,.08Z" style="fill:#7a22e0"/><polyline points="79.48 87.77 79.48 105.43 337.56 105.43 337.56 94.04" style="fill:none;stroke:#ccab23;stroke-miterlimit:10"/><polygon points="337.56 89.73 340.04 95.8 337.56 94.36 335.08 95.8 337.56 89.73" style="fill:#ccab23"/></svg>