<svg xmlns="http://www.w3.org/2000/svg" width="584.78" height="216" viewBox="0 0 584.78 216"><title>Artboard 71</title><path d="M363.63,123.4v19.15h-1.38a.6.6,0,0,1-.63-.48l-.2-1.6a7.49,7.49,0,0,1-1.93,1.64,5,5,0,0,1-2.49.62,4.64,4.64,0,0,1-2.06-.44,4.2,4.2,0,0,1-1.57-1.28,6,6,0,0,1-1-2.1A11,11,0,0,1,352,136a9.1,9.1,0,0,1,.39-2.71,6.61,6.61,0,0,1,1.12-2.18,5.22,5.22,0,0,1,1.78-1.45,5.31,5.31,0,0,1,2.39-.52,4.66,4.66,0,0,1,2.07.41,5,5,0,0,1,1.54,1.13V123.4Zm-2.32,9.11a3.72,3.72,0,0,0-1.4-1.21,4,4,0,0,0-1.69-.35,3.32,3.32,0,0,0-2.82,1.32,6.1,6.1,0,0,0-1,3.74,9.33,9.33,0,0,0,.22,2.2,4.2,4.2,0,0,0,.65,1.51,2.64,2.64,0,0,0,1.05.87,3.56,3.56,0,0,0,1.42.27,3.75,3.75,0,0,0,2-.52,5.81,5.81,0,0,0,1.56-1.47Z" style="fill:#282828"/><path d="M378,140.7a4.51,4.51,0,0,1-1,.91,6.92,6.92,0,0,1-1.28.63,8.11,8.11,0,0,1-1.41.37,8.93,8.93,0,0,1-1.44.12,6.68,6.68,0,0,1-2.52-.46,5.58,5.58,0,0,1-2-1.35,6.19,6.19,0,0,1-1.3-2.21,8.73,8.73,0,0,1-.47-3,7.76,7.76,0,0,1,.42-2.58,6.13,6.13,0,0,1,1.22-2.07,5.53,5.53,0,0,1,1.93-1.38,6.45,6.45,0,0,1,2.58-.5,5.8,5.8,0,0,1,2.19.4,4.87,4.87,0,0,1,1.74,1.14,5.33,5.33,0,0,1,1.15,1.85,6.93,6.93,0,0,1,.42,2.5,1.49,1.49,0,0,1-.12.73.49.49,0,0,1-.44.18h-8.8a7.6,7.6,0,0,0,.34,2.17,4.31,4.31,0,0,0,.85,1.54,3.62,3.62,0,0,0,1.3.93,4.54,4.54,0,0,0,1.69.3,5.09,5.09,0,0,0,1.5-.2,7.24,7.24,0,0,0,1.09-.44,7.93,7.93,0,0,0,.76-.43,1,1,0,0,1,.53-.2.51.51,0,0,1,.44.22Zm-1.87-6.17a4.64,4.64,0,0,0-.23-1.48,3.27,3.27,0,0,0-.66-1.15,3,3,0,0,0-1.06-.76,4,4,0,0,0-4.05.7,4.55,4.55,0,0,0-1.21,2.69Z" style="fill:#282828"/><path d="M381.75,142.55V131.36l-1.46-.17a1.33,1.33,0,0,1-.45-.2.51.51,0,0,1-.17-.4v-1h2.08v-1.27a5.89,5.89,0,0,1,.32-2,4,4,0,0,1,.91-1.49,3.9,3.9,0,0,1,1.42-.91,5.28,5.28,0,0,1,1.87-.31,4.76,4.76,0,0,1,1.63.26l0,1.15a.35.35,0,0,1-.35.34c-.21,0-.49,0-.85,0a3.73,3.73,0,0,0-1.09.15,2.11,2.11,0,0,0-1.37,1.43,4.52,4.52,0,0,0-.19,1.42v1.21h3.79v1.68h-3.71v11.23Z" style="fill:#282828"/><path d="M400.22,142.76a3.18,3.18,0,0,1-2.4-.87,3.52,3.52,0,0,1-.84-2.51v-8.06H395.4a.48.48,0,0,1-.35-.13.46.46,0,0,1-.15-.38v-.92l2.16-.28.54-4.07a.5.5,0,0,1,.17-.31.48.48,0,0,1,.36-.13h1.17v4.54h3.81v1.68H399.3v7.9a1.68,1.68,0,0,0,.4,1.24,1.45,1.45,0,0,0,1,.4,1.74,1.74,0,0,0,.63-.1,2.85,2.85,0,0,0,.46-.21l.34-.22a.47.47,0,0,1,.24-.1.39.39,0,0,1,.32.23l.68,1.1a4.3,4.3,0,0,1-1.45.88A4.92,4.92,0,0,1,400.22,142.76Z" style="fill:#282828"/><path d="M416.12,140.7a4.31,4.31,0,0,1-1,.91,6.62,6.62,0,0,1-1.28.63,8.11,8.11,0,0,1-1.41.37,8.75,8.75,0,0,1-1.44.12,6.68,6.68,0,0,1-2.52-.46,5.54,5.54,0,0,1-2-1.35,6.21,6.21,0,0,1-1.31-2.21,9,9,0,0,1-.47-3,7.76,7.76,0,0,1,.42-2.58,6.3,6.3,0,0,1,1.22-2.07,5.57,5.57,0,0,1,1.94-1.38,6.4,6.4,0,0,1,2.57-.5,5.8,5.8,0,0,1,2.19.4,4.87,4.87,0,0,1,1.74,1.14,5.18,5.18,0,0,1,1.15,1.85,6.93,6.93,0,0,1,.42,2.5,1.49,1.49,0,0,1-.12.73.48.48,0,0,1-.44.18H407a7.6,7.6,0,0,0,.34,2.17,4.32,4.32,0,0,0,.86,1.54,3.45,3.45,0,0,0,1.3.93,4.49,4.49,0,0,0,1.68.3,5.12,5.12,0,0,0,1.51-.2,7.09,7.09,0,0,0,1.08-.44,6.86,6.86,0,0,0,.76-.43,1,1,0,0,1,.53-.2.5.5,0,0,1,.44.22Zm-1.87-6.17a4.64,4.64,0,0,0-.23-1.48,3.27,3.27,0,0,0-.66-1.15,2.91,2.91,0,0,0-1.06-.76,4,4,0,0,0-4.05.7,4.49,4.49,0,0,0-1.2,2.69Z" style="fill:#282828"/><path d="M426.83,131.55a.51.51,0,0,1-.48.29.86.86,0,0,1-.44-.15l-.6-.32a6.86,6.86,0,0,0-.86-.32,4,4,0,0,0-1.17-.15,3.46,3.46,0,0,0-1,.15,2.62,2.62,0,0,0-.8.41,1.68,1.68,0,0,0-.5.6,1.6,1.6,0,0,0-.18.75,1.29,1.29,0,0,0,.29.85,2.52,2.52,0,0,0,.78.58,6.51,6.51,0,0,0,1.09.44l1.25.4c.43.14.85.3,1.26.47a5.33,5.33,0,0,1,1.09.65,2.84,2.84,0,0,1,1.06,2.32,4.19,4.19,0,0,1-.32,1.68,3.76,3.76,0,0,1-1,1.34,4.75,4.75,0,0,1-1.56.89,6.35,6.35,0,0,1-2.13.33,6.66,6.66,0,0,1-2.5-.45,6.26,6.26,0,0,1-1.9-1.15l.55-.89A.87.87,0,0,1,419,140a.7.7,0,0,1,.37-.09.87.87,0,0,1,.49.18c.18.13.39.26.63.41a4.58,4.58,0,0,0,.91.4,4.12,4.12,0,0,0,1.32.18,3.88,3.88,0,0,0,1.19-.17,2.53,2.53,0,0,0,.84-.48,1.85,1.85,0,0,0,.5-.69,2.08,2.08,0,0,0,.16-.83,1.35,1.35,0,0,0-.29-.9,2.39,2.39,0,0,0-.77-.61,6.62,6.62,0,0,0-1.1-.45l-1.26-.39q-.64-.21-1.26-.48a4.21,4.21,0,0,1-1.1-.67,2.91,2.91,0,0,1-.77-1,3.13,3.13,0,0,1-.3-1.44,3.67,3.67,0,0,1,.31-1.45,3.72,3.72,0,0,1,.91-1.22,4.56,4.56,0,0,1,1.47-.84,6.11,6.11,0,0,1,2-.31,6.38,6.38,0,0,1,2.34.41,5.36,5.36,0,0,1,1.78,1.13Z" style="fill:#282828"/><path d="M434.46,142.76a3.14,3.14,0,0,1-2.39-.87,3.48,3.48,0,0,1-.84-2.51v-8.06h-1.59a.49.49,0,0,1-.35-.13.46.46,0,0,1-.14-.38v-.92l2.16-.28.53-4.07a.52.52,0,0,1,.53-.44h1.17v4.54h3.81v1.68h-3.81v7.9a1.72,1.72,0,0,0,.4,1.24,1.45,1.45,0,0,0,1,.4,1.67,1.67,0,0,0,.63-.1,3,3,0,0,0,.47-.21l.33-.22a.47.47,0,0,1,.24-.1.39.39,0,0,1,.32.23l.68,1.1a4.35,4.35,0,0,1-1.44.88A5,5,0,0,1,434.46,142.76Z" style="fill:#282828"/><path d="M441.09,134.37a20.6,20.6,0,0,0,2.79,10.4.75.75,0,0,1,.1.62.83.83,0,0,1-.3.34l-1,.63a23.32,23.32,0,0,1-1.65-3,19.28,19.28,0,0,1-1.11-2.95,20.77,20.77,0,0,1-.62-3,25.14,25.14,0,0,1,0-6.17,20.22,20.22,0,0,1,.62-3,19.28,19.28,0,0,1,1.11-3,23.32,23.32,0,0,1,1.65-3l1,.63a.85.85,0,0,1,.3.35.71.71,0,0,1-.1.6,20.6,20.6,0,0,0-2.79,10.4Z" style="fill:#282828"/><path d="M445.85,131.24a7.45,7.45,0,0,1,2.35-1.57,7.27,7.27,0,0,1,2.8-.52,5,5,0,0,1,2,.36,4.07,4.07,0,0,1,1.45,1,4.34,4.34,0,0,1,.88,1.58,6.49,6.49,0,0,1,.3,2v8.43h-1a1.06,1.06,0,0,1-.52-.11.75.75,0,0,1-.28-.44l-.26-1.25c-.35.32-.69.61-1,.86a6.08,6.08,0,0,1-1,.62,5.46,5.46,0,0,1-1.16.39,6.41,6.41,0,0,1-1.37.14,4.59,4.59,0,0,1-1.45-.22,3.32,3.32,0,0,1-1.17-.64,3.06,3.06,0,0,1-.8-1.09,3.83,3.83,0,0,1-.29-1.55,3,3,0,0,1,.43-1.5,3.78,3.78,0,0,1,1.39-1.28,9.27,9.27,0,0,1,2.51-.92,19.43,19.43,0,0,1,3.8-.41v-1a3.49,3.49,0,0,0-.67-2.32,2.38,2.38,0,0,0-1.93-.78,4.25,4.25,0,0,0-1.44.21,5.49,5.49,0,0,0-1,.48l-.73.48a1,1,0,0,1-.6.22.65.65,0,0,1-.41-.13,1.15,1.15,0,0,1-.28-.3Zm7.48,5.38a21,21,0,0,0-2.73.25,7.78,7.78,0,0,0-1.83.53,2.6,2.6,0,0,0-1,.77,1.64,1.64,0,0,0-.31,1,2.21,2.21,0,0,0,.16.89,1.73,1.73,0,0,0,.47.62,1.76,1.76,0,0,0,.68.35,3.37,3.37,0,0,0,.86.11,4.78,4.78,0,0,0,1.11-.12,4,4,0,0,0,1-.36,5.75,5.75,0,0,0,.86-.56,7.79,7.79,0,0,0,.8-.74Z" style="fill:#ccab23"/><path d="M459,145.7a.61.61,0,0,1-.14-.17.42.42,0,0,1,0-.2.32.32,0,0,1,.06-.18A.7.7,0,0,1,459,145c.09-.1.2-.22.33-.38a4.37,4.37,0,0,0,.41-.55,5.8,5.8,0,0,0,.39-.7,3.8,3.8,0,0,0,.25-.81h-.17a1.44,1.44,0,0,1-1.1-.45,1.61,1.61,0,0,1-.42-1.15,1.43,1.43,0,0,1,.42-1,1.5,1.5,0,0,1,1.13-.43,1.67,1.67,0,0,1,.69.14,1.5,1.5,0,0,1,.5.4,1.82,1.82,0,0,1,.3.59,2.36,2.36,0,0,1,.11.72,4.77,4.77,0,0,1-.17,1.21,6.18,6.18,0,0,1-.48,1.25,7.84,7.84,0,0,1-.77,1.2,7.06,7.06,0,0,1-1,1.08Z" style="fill:#282828"/><path d="M474,131.28a6.8,6.8,0,0,1,1.87-1.54,5,5,0,0,1,2.42-.57,4.84,4.84,0,0,1,2.08.44,4.35,4.35,0,0,1,1.58,1.28,5.89,5.89,0,0,1,1,2,9.7,9.7,0,0,1,.34,2.69,10.14,10.14,0,0,1-.39,2.91,6.45,6.45,0,0,1-1.12,2.24,5.24,5.24,0,0,1-1.79,1.45,5.35,5.35,0,0,1-2.37.51,4.49,4.49,0,0,1-2.19-.49,4.7,4.7,0,0,1-1.55-1.38l-.12,1.19a.56.56,0,0,1-.6.5h-1.49V123.4H474Zm0,8.1a3.8,3.8,0,0,0,1.39,1.21,4,4,0,0,0,1.67.35,3.35,3.35,0,0,0,2.85-1.32,6.44,6.44,0,0,0,1-3.91,5.76,5.76,0,0,0-.88-3.55,3,3,0,0,0-2.5-1.14,3.64,3.64,0,0,0-2,.52A5.48,5.48,0,0,0,474,133Z" style="fill:#7a22e0"/><path d="M487.4,134.37a20.72,20.72,0,0,0-2.78-10.4,1,1,0,0,1-.13-.34.45.45,0,0,1,0-.26.67.67,0,0,1,.12-.2l.19-.15,1-.63a24.74,24.74,0,0,1,1.66,3,20.42,20.42,0,0,1,1.72,5.93,25.14,25.14,0,0,1,0,6.17,20.77,20.77,0,0,1-.62,3,20.33,20.33,0,0,1-1.1,2.95,24.74,24.74,0,0,1-1.66,3l-1-.63a.9.9,0,0,1-.19-.15.62.62,0,0,1-.12-.19.48.48,0,0,1,0-.27,1,1,0,0,1,.13-.35,20.72,20.72,0,0,0,2.78-10.4Z" style="fill:#282828"/><path d="M492.21,131.37a1.69,1.69,0,0,1,.12-.64,1.87,1.87,0,0,1,.34-.52,1.54,1.54,0,0,1,.51-.35,1.56,1.56,0,0,1,.64-.13,1.53,1.53,0,0,1,.64.13,1.63,1.63,0,0,1,.87.87,1.53,1.53,0,0,1,.13.64,1.5,1.5,0,0,1-.13.64,1.7,1.7,0,0,1-.35.52,1.67,1.67,0,0,1-.52.34,1.69,1.69,0,0,1-.64.12,1.73,1.73,0,0,1-.64-.12,1.52,1.52,0,0,1-.51-.34,1.87,1.87,0,0,1-.34-.52A1.66,1.66,0,0,1,492.21,131.37Zm0,9.75a1.69,1.69,0,0,1,.12-.64,1.87,1.87,0,0,1,.34-.52,1.54,1.54,0,0,1,.51-.35,1.56,1.56,0,0,1,.64-.13,1.53,1.53,0,0,1,.64.13,1.63,1.63,0,0,1,.87.87,1.53,1.53,0,0,1,.13.64,1.5,1.5,0,0,1-.13.64,1.7,1.7,0,0,1-.35.52,1.67,1.67,0,0,1-.52.34,1.69,1.69,0,0,1-.64.12,1.73,1.73,0,0,1-.64-.12,1.52,1.52,0,0,1-.51-.34,1.87,1.87,0,0,1-.34-.52A1.66,1.66,0,0,1,492.21,141.12Z" style="fill:#282828"/><path d="M37.05,142.76a3.15,3.15,0,0,1-2.4-.88,3.45,3.45,0,0,1-.84-2.5v-8.06H32.23a.52.52,0,0,1-.35-.13.46.46,0,0,1-.15-.38v-.92l2.16-.28.53-4.07a.57.57,0,0,1,.18-.31.48.48,0,0,1,.36-.13h1.17v4.54h3.81v1.68H36.13v7.9a1.66,1.66,0,0,0,.4,1.23,1.42,1.42,0,0,0,1,.41,2,2,0,0,0,.63-.1,2.85,2.85,0,0,0,.46-.21l.33-.22a.47.47,0,0,1,.24-.1.42.42,0,0,1,.33.22l.67,1.11a4.32,4.32,0,0,1-1.44.88A4.92,4.92,0,0,1,37.05,142.76Z" style="fill:#282828"/><path d="M53,140.7a4.51,4.51,0,0,1-1,.91,6.92,6.92,0,0,1-1.28.63,9.11,9.11,0,0,1-1.41.37,8.93,8.93,0,0,1-1.44.12,6.68,6.68,0,0,1-2.52-.46,5.58,5.58,0,0,1-2-1.35,6.19,6.19,0,0,1-1.3-2.21,8.73,8.73,0,0,1-.47-3,7.76,7.76,0,0,1,.42-2.58,5.94,5.94,0,0,1,1.22-2.07,5.41,5.41,0,0,1,1.93-1.38,6.45,6.45,0,0,1,2.58-.5,5.8,5.8,0,0,1,2.19.4,4.87,4.87,0,0,1,1.74,1.14,5.24,5.24,0,0,1,1.15,1.85,6.93,6.93,0,0,1,.42,2.5,1.49,1.49,0,0,1-.12.73.49.49,0,0,1-.44.18H43.8a7.6,7.6,0,0,0,.34,2.17,4.31,4.31,0,0,0,.85,1.54,3.48,3.48,0,0,0,1.3.92,4.35,4.35,0,0,0,1.69.31,5.09,5.09,0,0,0,1.5-.2,7.24,7.24,0,0,0,1.09-.44,7.93,7.93,0,0,0,.76-.43,1,1,0,0,1,.53-.2.51.51,0,0,1,.44.22Zm-1.87-6.17a4.64,4.64,0,0,0-.23-1.48,3.4,3.4,0,0,0-.66-1.16,3.1,3.1,0,0,0-1.06-.75,4,4,0,0,0-4.05.7,4.55,4.55,0,0,0-1.21,2.69Z" style="fill:#282828"/><path d="M63.66,131.55a.51.51,0,0,1-.48.29.86.86,0,0,1-.44-.15l-.61-.32a6.14,6.14,0,0,0-.85-.32,4.06,4.06,0,0,0-1.17-.15,3.41,3.41,0,0,0-1,.15,2.42,2.42,0,0,0-.8.41,1.82,1.82,0,0,0-.51.6,1.72,1.72,0,0,0-.17.75,1.24,1.24,0,0,0,.29.85,2.47,2.47,0,0,0,.77.58,6.87,6.87,0,0,0,1.09.44c.41.12.83.26,1.26.4s.85.3,1.25.47a4.77,4.77,0,0,1,1.1.65,2.84,2.84,0,0,1,1.06,2.32,4.41,4.41,0,0,1-.32,1.68,3.66,3.66,0,0,1-1,1.34,4.6,4.6,0,0,1-1.55.89,6.37,6.37,0,0,1-2.14.33,6.57,6.57,0,0,1-2.49-.45,6.46,6.46,0,0,1-1.9-1.15l.54-.89a.89.89,0,0,1,.25-.26.7.7,0,0,1,.37-.09.87.87,0,0,1,.49.18,7,7,0,0,0,.63.41,5.48,5.48,0,0,0,.9.4,4.23,4.23,0,0,0,1.33.18,3.81,3.81,0,0,0,1.18-.17,2.59,2.59,0,0,0,.85-.48,2,2,0,0,0,.5-.69,2.08,2.08,0,0,0,.16-.83,1.41,1.41,0,0,0-.29-.9,2.41,2.41,0,0,0-.78-.61,6.5,6.5,0,0,0-1.09-.45q-.63-.18-1.26-.39c-.43-.14-.85-.3-1.27-.48a4.15,4.15,0,0,1-1.09-.67,2.93,2.93,0,0,1-.78-1,3.3,3.3,0,0,1-.29-1.44,3.5,3.5,0,0,1,.31-1.45,3.58,3.58,0,0,1,.91-1.22,4.56,4.56,0,0,1,1.47-.84,5.82,5.82,0,0,1,2-.31,6.32,6.32,0,0,1,2.33.41,5.55,5.55,0,0,1,1.79,1.12Z" style="fill:#282828"/><path d="M71.29,142.76a3.15,3.15,0,0,1-2.4-.88,3.45,3.45,0,0,1-.84-2.5v-8.06H66.47a.52.52,0,0,1-.35-.13.46.46,0,0,1-.15-.38v-.92l2.16-.28.54-4.07a.5.5,0,0,1,.17-.31.48.48,0,0,1,.36-.13h1.17v4.54h3.81v1.68H70.37v7.9a1.66,1.66,0,0,0,.4,1.23,1.42,1.42,0,0,0,1,.41,2,2,0,0,0,.63-.1,2.85,2.85,0,0,0,.46-.21l.33-.22a.54.54,0,0,1,.25-.1.42.42,0,0,1,.32.22l.68,1.11a4.47,4.47,0,0,1-1.45.88A4.92,4.92,0,0,1,71.29,142.76Z" style="fill:#282828"/><path d="M77.92,134.37a20.72,20.72,0,0,0,2.78,10.4.72.72,0,0,1,.11.62.83.83,0,0,1-.3.34l-1,.63a24.74,24.74,0,0,1-1.66-3,20.33,20.33,0,0,1-1.1-2.95,20.77,20.77,0,0,1-.62-3,25.14,25.14,0,0,1,0-6.17,20.42,20.42,0,0,1,1.72-5.93,25.63,25.63,0,0,1,1.66-3l1,.64a.85.85,0,0,1,.3.35.68.68,0,0,1-.11.6,20.72,20.72,0,0,0-2.78,10.4Z" style="fill:#282828"/><path d="M85.49,131.29a7.45,7.45,0,0,1,.91-.87,6.18,6.18,0,0,1,1-.67,5.05,5.05,0,0,1,1.14-.43,5.41,5.41,0,0,1,1.31-.15,4.7,4.7,0,0,1,1.9.36,3.69,3.69,0,0,1,1.38,1,4.51,4.51,0,0,1,.84,1.58,6.94,6.94,0,0,1,.28,2v8.39H92v-8.39a3.58,3.58,0,0,0-.68-2.32,2.55,2.55,0,0,0-2.08-.82,3.92,3.92,0,0,0-1.92.49,6.4,6.4,0,0,0-1.64,1.34v9.7H83.3V129.38h1.39a.58.58,0,0,1,.62.48Z" style="fill:#ccab23"/><path d="M108.64,129.38v13.17h-1.38a.58.58,0,0,1-.62-.48l-.18-1.42a7.57,7.57,0,0,1-1.93,1.53,5.09,5.09,0,0,1-2.44.58,4.75,4.75,0,0,1-1.91-.36,3.8,3.8,0,0,1-1.38-1,4.38,4.38,0,0,1-.84-1.57,6.94,6.94,0,0,1-.28-2v-8.4H100v8.4a3.5,3.5,0,0,0,.69,2.31,2.54,2.54,0,0,0,2.08.82,3.86,3.86,0,0,0,1.92-.49,6.2,6.2,0,0,0,1.65-1.34v-9.7Z" style="fill:#ccab23"/><path d="M112.31,142.55V129.38h1.39a.57.57,0,0,1,.61.48l.17,1.35a6.63,6.63,0,0,1,1.63-1.47,3.9,3.9,0,0,1,2.11-.57,3.1,3.1,0,0,1,2.15.74,4.18,4.18,0,0,1,1.19,2,4.43,4.43,0,0,1,.74-1.23,4.27,4.27,0,0,1,1-.86,4.4,4.4,0,0,1,1.19-.49,5,5,0,0,1,1.28-.16,4.94,4.94,0,0,1,1.86.33,3.64,3.64,0,0,1,1.37,1,4.35,4.35,0,0,1,.87,1.57,6.91,6.91,0,0,1,.3,2.12v8.39h-2.33v-8.39a3.53,3.53,0,0,0-.67-2.34,2.42,2.42,0,0,0-2-.8,2.82,2.82,0,0,0-1.09.2,2.56,2.56,0,0,0-.9.59,2.79,2.79,0,0,0-.62,1,3.86,3.86,0,0,0-.23,1.37v8.39h-2.33v-8.39a3.71,3.71,0,0,0-.63-2.36,2.28,2.28,0,0,0-1.86-.78,2.91,2.91,0,0,0-1.59.46,5.4,5.4,0,0,0-1.34,1.25v9.82Z" style="fill:#ccab23"/><path d="M133.55,145.69a.57.57,0,0,1-.15-.17.5.5,0,0,1,0-.19.41.41,0,0,1,0-.18,1.15,1.15,0,0,1,.14-.17c.09-.1.2-.22.33-.38a4.37,4.37,0,0,0,.41-.55,5.8,5.8,0,0,0,.39-.7,3.72,3.72,0,0,0,.25-.82l-.09,0h-.08a1.44,1.44,0,0,1-1.1-.45,1.61,1.61,0,0,1-.42-1.15,1.43,1.43,0,0,1,.42-1,1.5,1.5,0,0,1,1.13-.43,1.59,1.59,0,0,1,.68.14,1.54,1.54,0,0,1,.51.4,1.88,1.88,0,0,1,.3.58,2.43,2.43,0,0,1,.11.73,4.77,4.77,0,0,1-.17,1.21,6.18,6.18,0,0,1-.48,1.25A7.84,7.84,0,0,1,135,145a7.57,7.57,0,0,1-1,1.08Z" style="fill:#282828"/><path d="M146.25,142.55V129.38h1.39a.57.57,0,0,1,.61.48l.17,1.35a6.5,6.5,0,0,1,1.64-1.47,3.86,3.86,0,0,1,2.1-.57,3.1,3.1,0,0,1,2.15.74,4.1,4.1,0,0,1,1.19,2,4.43,4.43,0,0,1,.74-1.23,4.12,4.12,0,0,1,1-.86,4.27,4.27,0,0,1,1.19-.49,5,5,0,0,1,1.28-.16,4.88,4.88,0,0,1,1.85.33,3.76,3.76,0,0,1,1.38,1,4.48,4.48,0,0,1,.86,1.57,6.91,6.91,0,0,1,.3,2.12v8.39h-2.33v-8.39a3.53,3.53,0,0,0-.67-2.34,2.39,2.39,0,0,0-2-.8,2.85,2.85,0,0,0-1.09.2,2.56,2.56,0,0,0-.9.59,2.79,2.79,0,0,0-.62,1,3.86,3.86,0,0,0-.23,1.37v8.39H154v-8.39a3.71,3.71,0,0,0-.64-2.36,2.26,2.26,0,0,0-1.86-.78,2.91,2.91,0,0,0-1.59.46,5.2,5.2,0,0,0-1.33,1.25v9.82Z" style="fill:#7a22e0"/><path d="M178.67,129.38l-7.35,17.05a1,1,0,0,1-.29.42.79.79,0,0,1-.54.16h-1.71l2.4-5.23-5.43-12.4h2a.68.68,0,0,1,.47.15.85.85,0,0,1,.25.33l3.52,8.29a10.26,10.26,0,0,1,.35,1.15c.12-.41.25-.8.39-1.16l3.42-8.28a.73.73,0,0,1,.26-.34.67.67,0,0,1,.43-.14Z" style="fill:#7a22e0"/><path d="M190,144.69v1.56H179.72v-1.56Z" style="fill:#7a22e0"/><path d="M195,123.4v19.15h-2.32V123.4Z" style="fill:#7a22e0"/><path d="M201.72,125.24a1.46,1.46,0,0,1-.14.63,1.91,1.91,0,0,1-.36.53,1.58,1.58,0,0,1-.53.35,1.61,1.61,0,0,1-.65.13,1.51,1.51,0,0,1-.63-.13,1.6,1.6,0,0,1-.51-.35,1.69,1.69,0,0,1-.35-.53,1.45,1.45,0,0,1-.13-.63,1.56,1.56,0,0,1,.13-.64,1.58,1.58,0,0,1,.35-.53,1.82,1.82,0,0,1,.51-.36,1.51,1.51,0,0,1,.63-.13,1.61,1.61,0,0,1,.65.13,1.71,1.71,0,0,1,.89.89A1.57,1.57,0,0,1,201.72,125.24Zm-.49,4.14v13.17h-2.32V129.38Z" style="fill:#7a22e0"/><path d="M212.69,131.55a.51.51,0,0,1-.48.29.86.86,0,0,1-.44-.15l-.61-.32a6.14,6.14,0,0,0-.85-.32,4.06,4.06,0,0,0-1.17-.15,3.41,3.41,0,0,0-1,.15,2.42,2.42,0,0,0-.8.41,1.82,1.82,0,0,0-.51.6,1.72,1.72,0,0,0-.17.75,1.24,1.24,0,0,0,.29.85,2.47,2.47,0,0,0,.77.58,6.63,6.63,0,0,0,1.1.44l1.25.4c.43.14.85.3,1.25.47a4.77,4.77,0,0,1,1.1.65,2.84,2.84,0,0,1,1.06,2.32,4.41,4.41,0,0,1-.32,1.68,3.76,3.76,0,0,1-1,1.34,4.75,4.75,0,0,1-1.56.89,6.37,6.37,0,0,1-2.14.33,6.57,6.57,0,0,1-2.49-.45,6.46,6.46,0,0,1-1.9-1.15l.55-.89a.76.76,0,0,1,.24-.26.7.7,0,0,1,.37-.09.87.87,0,0,1,.49.18,7,7,0,0,0,.63.41,5.48,5.48,0,0,0,.9.4,4.23,4.23,0,0,0,1.33.18,3.81,3.81,0,0,0,1.18-.17,2.59,2.59,0,0,0,.85-.48,2,2,0,0,0,.5-.69,2.08,2.08,0,0,0,.16-.83,1.41,1.41,0,0,0-.29-.9,2.31,2.31,0,0,0-.78-.61,6.5,6.5,0,0,0-1.09-.45c-.41-.12-.84-.25-1.26-.39s-.85-.3-1.27-.48a4.15,4.15,0,0,1-1.09-.67,2.93,2.93,0,0,1-.78-1,3.3,3.3,0,0,1-.29-1.44,3.5,3.5,0,0,1,.31-1.45,3.58,3.58,0,0,1,.91-1.22,4.56,4.56,0,0,1,1.47-.84,5.82,5.82,0,0,1,2-.31,6.32,6.32,0,0,1,2.33.41,5.55,5.55,0,0,1,1.79,1.12Z" style="fill:#7a22e0"/><path d="M220.32,142.76a3.15,3.15,0,0,1-2.4-.88,3.45,3.45,0,0,1-.84-2.5v-8.06H215.5a.52.52,0,0,1-.35-.13.46.46,0,0,1-.15-.38v-.92l2.16-.28.54-4.07a.5.5,0,0,1,.17-.31.48.48,0,0,1,.36-.13h1.17v4.54h3.81v1.68H219.4v7.9a1.66,1.66,0,0,0,.4,1.23,1.42,1.42,0,0,0,1,.41,2,2,0,0,0,.63-.1,2.85,2.85,0,0,0,.46-.21l.34-.22a.47.47,0,0,1,.24-.1.42.42,0,0,1,.32.22l.68,1.11a4.47,4.47,0,0,1-1.45.88A4.92,4.92,0,0,1,220.32,142.76Z" style="fill:#7a22e0"/><path d="M227.52,134.37a20.39,20.39,0,0,0-.71-5.41,20.72,20.72,0,0,0-2.07-5,1.22,1.22,0,0,1-.13-.34.55.55,0,0,1,0-.26.53.53,0,0,1,.13-.2,1.57,1.57,0,0,1,.19-.15l1-.64a24.24,24.24,0,0,1,1.66,3,19.62,19.62,0,0,1,1.72,5.93,23.89,23.89,0,0,1,0,6.17,20.73,20.73,0,0,1-.61,3,20.39,20.39,0,0,1-1.11,2.95,23.43,23.43,0,0,1-1.66,3l-1-.63a.7.7,0,0,1-.19-.15.5.5,0,0,1-.13-.19.6.6,0,0,1,0-.27,1.27,1.27,0,0,1,.13-.35,20.72,20.72,0,0,0,2.07-5A20.33,20.33,0,0,0,227.52,134.37Z" style="fill:#282828"/><path d="M35.19,41.73a8.25,8.25,0,0,1,.91-.87,6.18,6.18,0,0,1,1-.67,5.45,5.45,0,0,1,1.15-.43,5.34,5.34,0,0,1,1.3-.14,4.75,4.75,0,0,1,1.91.35,3.6,3.6,0,0,1,1.37,1,4.34,4.34,0,0,1,.84,1.58,6.84,6.84,0,0,1,.29,2V53H41.65V44.61A3.56,3.56,0,0,0,41,42.29a2.55,2.55,0,0,0-2.07-.83A4,4,0,0,0,37,42a6.44,6.44,0,0,0-1.65,1.34V53H33V39.82H34.4a.57.57,0,0,1,.61.48Z" style="fill:#282828"/><path d="M58.34,39.82V53H57a.6.6,0,0,1-.63-.48l-.18-1.42a6.86,6.86,0,0,1-1.93,1.53,5,5,0,0,1-2.44.58,4.7,4.7,0,0,1-1.9-.36,3.73,3.73,0,0,1-1.39-1,4.3,4.3,0,0,1-.84-1.57,7.19,7.19,0,0,1-.28-2v-8.4H49.7v8.4a3.52,3.52,0,0,0,.68,2.31,2.56,2.56,0,0,0,2.09.82,4,4,0,0,0,1.91-.48A6.13,6.13,0,0,0,56,49.52v-9.7Z" style="fill:#282828"/><path d="M62,53V39.82H63.4a.57.57,0,0,1,.61.48l.17,1.36a6.67,6.67,0,0,1,1.64-1.47,3.86,3.86,0,0,1,2.1-.57,3.1,3.1,0,0,1,2.16.74,4.21,4.21,0,0,1,1.19,2A4.32,4.32,0,0,1,72,41.12a4.08,4.08,0,0,1,1-.85,4,4,0,0,1,1.19-.5,5.47,5.47,0,0,1,1.28-.15,4.88,4.88,0,0,1,1.85.33,3.73,3.73,0,0,1,1.38,1,4.48,4.48,0,0,1,.86,1.57,6.93,6.93,0,0,1,.3,2.13V53H77.54V44.61a3.56,3.56,0,0,0-.67-2.35,2.42,2.42,0,0,0-2-.8,3.1,3.1,0,0,0-1.09.2,2.7,2.7,0,0,0-.9.59,2.74,2.74,0,0,0-.62,1,3.82,3.82,0,0,0-.23,1.37V53H69.76V44.61a3.72,3.72,0,0,0-.64-2.37,2.25,2.25,0,0,0-1.86-.78,2.94,2.94,0,0,0-1.58.46,5.12,5.12,0,0,0-1.34,1.26V53Z" style="fill:#282828"/><path d="M90.17,41.17h11.18v1.76H90.17Zm0,4.36h11.18v1.75H90.17Z" style="fill:#282828"/><path d="M123.19,51.22V53h-10V51.22h4V38.52c0-.38,0-.76,0-1.15l-3.31,2.84a.71.71,0,0,1-.34.18,1.1,1.1,0,0,1-.31,0,.81.81,0,0,1-.27-.11.79.79,0,0,1-.19-.17l-.73-1,5.56-4.8h1.88v16.9Z" style="fill:#282828"/><path d="M137.86,50.79a.81.81,0,0,1,.6.23.74.74,0,0,1,.22.57V53H126.25V52.2a1.38,1.38,0,0,1,.11-.51,1.61,1.61,0,0,1,.32-.48l6-6c.49-.5.94-1,1.35-1.45a9.72,9.72,0,0,0,1-1.4A6.25,6.25,0,0,0,135.7,41a4.87,4.87,0,0,0,.24-1.54,3.74,3.74,0,0,0-.26-1.44,2.79,2.79,0,0,0-.71-1,2.84,2.84,0,0,0-1.06-.6,4.22,4.22,0,0,0-2.63,0,3.5,3.5,0,0,0-1.83,1.46,3.54,3.54,0,0,0-.44,1.12,1,1,0,0,1-.42.6,1.23,1.23,0,0,1-.75.09l-1.21-.21a6.81,6.81,0,0,1,.71-2.26,5.36,5.36,0,0,1,1.33-1.64,5.68,5.68,0,0,1,1.82-1,7,7,0,0,1,2.22-.34,6.61,6.61,0,0,1,2.21.35,5.1,5.1,0,0,1,1.79,1,4.75,4.75,0,0,1,1.18,1.63,5.4,5.4,0,0,1,.43,2.18,6,6,0,0,1-.31,1.93,7.51,7.51,0,0,1-.85,1.7,11.75,11.75,0,0,1-1.23,1.57c-.46.51-1,1-1.47,1.55l-4.92,5a9.52,9.52,0,0,1,1.06-.23,6,6,0,0,1,1-.09Z" style="fill:#282828"/><path d="M154.41,43.68a15.22,15.22,0,0,1-.52,4.24,8.93,8.93,0,0,1-1.44,2.95,6,6,0,0,1-2.15,1.75,6.32,6.32,0,0,1-2.66.57,6.26,6.26,0,0,1-2.66-.57,5.94,5.94,0,0,1-2.14-1.75,8.73,8.73,0,0,1-1.43-2.95,15.22,15.22,0,0,1-.52-4.24,15.1,15.1,0,0,1,.52-4.23,8.74,8.74,0,0,1,1.43-3A5.74,5.74,0,0,1,145,34.73a6.26,6.26,0,0,1,2.66-.57,6.32,6.32,0,0,1,2.66.57,5.77,5.77,0,0,1,2.15,1.75,8.94,8.94,0,0,1,1.44,3A15.1,15.1,0,0,1,154.41,43.68Zm-2.4,0a15.14,15.14,0,0,0-.36-3.58,7.33,7.33,0,0,0-1-2.33,3.72,3.72,0,0,0-1.4-1.27,3.77,3.77,0,0,0-3.3,0,3.62,3.62,0,0,0-1.39,1.27,7.33,7.33,0,0,0-1,2.33,15.14,15.14,0,0,0-.36,3.58,15,15,0,0,0,.36,3.58,7.33,7.33,0,0,0,1,2.33A3.51,3.51,0,0,0,146,50.85a3.69,3.69,0,0,0,3.3,0,3.6,3.6,0,0,0,1.4-1.26,7.33,7.33,0,0,0,1-2.33A15,15,0,0,0,152,43.68Z" style="fill:#282828"/><path d="M33,97.77V84.6H34.4a.57.57,0,0,1,.61.48l.17,1.35A6.79,6.79,0,0,1,36.81,85a3.82,3.82,0,0,1,2.11-.58,3.1,3.1,0,0,1,2.15.74,4.21,4.21,0,0,1,1.19,2A4.34,4.34,0,0,1,43,85.9,4.27,4.27,0,0,1,44,85a4.4,4.4,0,0,1,1.19-.49,5.54,5.54,0,0,1,1.28-.16,4.94,4.94,0,0,1,1.86.33,3.75,3.75,0,0,1,1.37,1,4.35,4.35,0,0,1,.87,1.57,6.93,6.93,0,0,1,.3,2.13v8.38H48.54V89.39A3.54,3.54,0,0,0,47.87,87a2.45,2.45,0,0,0-1.95-.8,3,3,0,0,0-1.09.2,2.56,2.56,0,0,0-.9.59,2.79,2.79,0,0,0-.62,1,3.91,3.91,0,0,0-.23,1.38v8.38H40.75V89.39A3.73,3.73,0,0,0,40.12,87a2.28,2.28,0,0,0-1.86-.78,2.91,2.91,0,0,0-1.59.46A5.59,5.59,0,0,0,35.33,88v9.82Z" style="fill:#282828"/><path d="M65.43,84.6l-7.35,17.06a1,1,0,0,1-.29.41.77.77,0,0,1-.54.16H55.53L57.94,97,52.51,84.6h2a.68.68,0,0,1,.47.15.74.74,0,0,1,.24.33l3.53,8.3a11.73,11.73,0,0,1,.35,1.14c.12-.41.25-.79.39-1.16l3.42-8.28a.73.73,0,0,1,.26-.34.74.74,0,0,1,.43-.14Z" style="fill:#282828"/><path d="M76.73,99.91v1.57H66.48V99.91Z" style="fill:#282828"/><path d="M81.79,78.62V97.77H79.48V78.62Z" style="fill:#282828"/><path d="M88.48,80.47a1.52,1.52,0,0,1-.14.63,1.86,1.86,0,0,1-.36.52,1.82,1.82,0,0,1-.54.36,1.74,1.74,0,0,1-.64.13,1.61,1.61,0,0,1-.63-.13,1.57,1.57,0,0,1-.51-.36,1.86,1.86,0,0,1-.36-.52,1.69,1.69,0,0,1-.13-.63,1.79,1.79,0,0,1,.13-.65,1.77,1.77,0,0,1,.36-.53,1.57,1.57,0,0,1,.51-.36,1.61,1.61,0,0,1,.63-.13,1.74,1.74,0,0,1,.64.13,1.82,1.82,0,0,1,.54.36,1.77,1.77,0,0,1,.36.53A1.62,1.62,0,0,1,88.48,80.47ZM88,84.6V97.77H85.67V84.6Z" style="fill:#282828"/><path d="M99.45,86.77a.52.52,0,0,1-.48.29.86.86,0,0,1-.44-.15c-.17-.09-.37-.2-.61-.31a5.4,5.4,0,0,0-.85-.33,4.06,4.06,0,0,0-1.17-.15,3.41,3.41,0,0,0-1.05.15,2.51,2.51,0,0,0-.8.41,1.85,1.85,0,0,0-.51.61,1.56,1.56,0,0,0-.18.74,1.24,1.24,0,0,0,.3.85,2.47,2.47,0,0,0,.77.58,6.87,6.87,0,0,0,1.09.44c.41.12.83.26,1.26.4s.84.3,1.25.48a4.37,4.37,0,0,1,1.09.65,2.77,2.77,0,0,1,1.07,2.31,4.2,4.2,0,0,1-.33,1.68,3.45,3.45,0,0,1-1,1.34,4.4,4.4,0,0,1-1.56.89,6.27,6.27,0,0,1-2.13.33,6.66,6.66,0,0,1-2.5-.45,6.33,6.33,0,0,1-1.89-1.15l.54-.89a.75.75,0,0,1,.25-.25.59.59,0,0,1,.36-.1.85.85,0,0,1,.5.19c.17.12.38.25.63.4a4.75,4.75,0,0,0,.9.4,4.23,4.23,0,0,0,1.33.18,3.54,3.54,0,0,0,1.18-.17,2.59,2.59,0,0,0,.85-.48,1.94,1.94,0,0,0,.5-.68,2.32,2.32,0,0,0,.16-.84,1.41,1.41,0,0,0-.29-.9,2.55,2.55,0,0,0-.78-.61,5.6,5.6,0,0,0-1.1-.44l-1.26-.4c-.43-.14-.85-.3-1.26-.47a4.82,4.82,0,0,1-1.1-.67,3.08,3.08,0,0,1-.77-1,3.25,3.25,0,0,1-.29-1.43,3.44,3.44,0,0,1,.31-1.45,3.52,3.52,0,0,1,.91-1.23,4.56,4.56,0,0,1,1.47-.84,6.07,6.07,0,0,1,2-.31,6.36,6.36,0,0,1,2.33.41A5.57,5.57,0,0,1,100,85.93Z" style="fill:#282828"/><path d="M107.08,98a3.18,3.18,0,0,1-2.4-.87,3.48,3.48,0,0,1-.84-2.51V86.54h-1.58a.48.48,0,0,1-.35-.13.46.46,0,0,1-.15-.38v-.92l2.16-.27.53-4.07a.6.6,0,0,1,.18-.32.53.53,0,0,1,.36-.13h1.17v4.54H110v1.68h-3.81v7.9a1.68,1.68,0,0,0,.4,1.24,1.41,1.41,0,0,0,1,.4,1.74,1.74,0,0,0,.63-.1,2.19,2.19,0,0,0,.46-.21,3.76,3.76,0,0,0,.33-.22.45.45,0,0,1,.24-.09.39.39,0,0,1,.33.22l.67,1.1a4,4,0,0,1-1.44.88A4.92,4.92,0,0,1,107.08,98Z" style="fill:#282828"/><path d="M119.13,86h11.18v1.76H119.13Zm0,4.36h11.18v1.75H119.13Z" style="fill:#282828"/><path d="M143.23,79.36V100h2.2a.63.63,0,0,1,.64.63v.91h-4.79V77.84h4.79v.91a.6.6,0,0,1-.18.44.65.65,0,0,1-.46.17Z" style="fill:#282828"/><path d="M160.11,96v1.77h-10V96h4V83.3c0-.38,0-.77,0-1.16L150.84,85a.75.75,0,0,1-.34.18.81.81,0,0,1-.31,0,.63.63,0,0,1-.27-.1.64.64,0,0,1-.19-.17l-.73-1,5.55-4.8h1.89V96Z" style="fill:#282828"/><path d="M163.64,100.92a.5.5,0,0,1-.14-.17.4.4,0,0,1,0-.2.32.32,0,0,1,.06-.18,1.09,1.09,0,0,1,.13-.17c.09-.09.2-.22.34-.38a5.62,5.62,0,0,0,.41-.55,7.59,7.59,0,0,0,.38-.7,3.3,3.3,0,0,0,.25-.81h-.17a1.42,1.42,0,0,1-1.09-.45,1.58,1.58,0,0,1-.43-1.15,1.4,1.4,0,0,1,.43-1,1.67,1.67,0,0,1,1.81-.28,1.36,1.36,0,0,1,.5.39,1.93,1.93,0,0,1,.3.59,2.36,2.36,0,0,1,.11.72,5.23,5.23,0,0,1-.16,1.21,6.18,6.18,0,0,1-.48,1.25,8.77,8.77,0,0,1-.78,1.2,7.06,7.06,0,0,1-1,1.08Z" style="fill:#282828"/><path d="M187.34,95.57a.85.85,0,0,1,.6.22.78.78,0,0,1,.22.58v1.4H175.73V97a1.34,1.34,0,0,1,.11-.51,1.3,1.3,0,0,1,.32-.48l6-6c.49-.51.94-1,1.35-1.45a10.53,10.53,0,0,0,1-1.4,6.25,6.25,0,0,0,.66-1.42,4.91,4.91,0,0,0,.24-1.54,3.74,3.74,0,0,0-.26-1.44,2.92,2.92,0,0,0-.71-1,3,3,0,0,0-1.06-.61,4.33,4.33,0,0,0-1.31-.2,4,4,0,0,0-1.32.21,3.51,3.51,0,0,0-1.06.58,3.61,3.61,0,0,0-.77.88,3.27,3.27,0,0,0-.44,1.11,1.06,1.06,0,0,1-.43.61,1.13,1.13,0,0,1-.74.08l-1.21-.2a6.74,6.74,0,0,1,.71-2.26A5.34,5.34,0,0,1,180,79.28a7.18,7.18,0,0,1,4.43,0,5.28,5.28,0,0,1,1.78,1,4.69,4.69,0,0,1,1.19,1.64,5.4,5.4,0,0,1,.43,2.18,5.75,5.75,0,0,1-.32,1.93,8.14,8.14,0,0,1-.84,1.7,14.57,14.57,0,0,1-1.23,1.57c-.46.51-1,1-1.48,1.55l-4.91,5a7.89,7.89,0,0,1,1-.23,6.24,6.24,0,0,1,1-.09Z" style="fill:#282828"/><path d="M195.18,101.53h-4.79v-.91A.63.63,0,0,1,191,100h2.2V79.36H191a.65.65,0,0,1-.46-.17.6.6,0,0,1-.18-.44v-.91h4.79Z" style="fill:#282828"/><path d="M407.33,178.66l-.17,1a.81.81,0,0,1-.3.55,1.26,1.26,0,0,1-.74.18h-1.79l-.85,4.24h2.33a.65.65,0,0,1,.54.21,1,1,0,0,1,.08.75l-.12.74h-3.08l-1.09,5.5h-1.05a.65.65,0,0,1-.31-.08.61.61,0,0,1-.24-.21.74.74,0,0,1-.14-.31.9.9,0,0,1,0-.4l.92-4.5h-3.21l-.92,4.61a1,1,0,0,1-.38.69,1.2,1.2,0,0,1-.67.2h-1l1.1-5.5h-1.9a.59.59,0,0,1-.52-.22,1,1,0,0,1-.09-.74l.11-.74h2.65l.84-4.24h-3l.17-1a.81.81,0,0,1,.3-.56,1.24,1.24,0,0,1,.74-.19h2.05l.94-4.65a1,1,0,0,1,.35-.61,1,1,0,0,1,.67-.22h1l-1.09,5.48h3.21l1.09-5.48h1a.72.72,0,0,1,.59.25.67.67,0,0,1,.15.62l-.95,4.61Zm-4.91,1.71H399.2l-.84,4.24h3.21Z" style="fill:#282828"/><path d="M427.39,172.66v19.15H426a.58.58,0,0,1-.62-.48l-.21-1.6a7.49,7.49,0,0,1-1.93,1.64,5,5,0,0,1-2.49.62,4.78,4.78,0,0,1-2.06-.44,4.2,4.2,0,0,1-1.57-1.28,6,6,0,0,1-1-2.1,11,11,0,0,1-.35-2.9,9.06,9.06,0,0,1,.39-2.71,6.61,6.61,0,0,1,1.12-2.18,5.22,5.22,0,0,1,1.78-1.45,5.34,5.34,0,0,1,2.39-.53,4.8,4.8,0,0,1,2.07.41,5.18,5.18,0,0,1,1.54,1.14v-7.29Zm-2.32,9.11a3.72,3.72,0,0,0-1.4-1.21,4,4,0,0,0-1.69-.35,3.33,3.33,0,0,0-2.82,1.31,6.15,6.15,0,0,0-1,3.75,9.33,9.33,0,0,0,.22,2.2A4.38,4.38,0,0,0,419,189a2.62,2.62,0,0,0,1,.86,3.4,3.4,0,0,0,1.42.28,3.84,3.84,0,0,0,2-.52,5.81,5.81,0,0,0,1.56-1.47Z" style="fill:#282828"/><path d="M436.61,178.43a6.77,6.77,0,0,1,2.6.48,5.5,5.5,0,0,1,2,1.37,6,6,0,0,1,1.26,2.13,8.59,8.59,0,0,1,.43,2.81,8.44,8.44,0,0,1-.43,2.8,5.92,5.92,0,0,1-1.26,2.14,5.33,5.33,0,0,1-2,1.35,7.34,7.34,0,0,1-5.22,0,5.41,5.41,0,0,1-2-1.35,6,6,0,0,1-1.25-2.14,8.44,8.44,0,0,1-.44-2.8,8.58,8.58,0,0,1,.44-2.81,6.09,6.09,0,0,1,1.25-2.13,5.58,5.58,0,0,1,2-1.37A6.76,6.76,0,0,1,436.61,178.43Zm0,11.75a3.39,3.39,0,0,0,2.91-1.3,7.46,7.46,0,0,0,0-7.32,3.39,3.39,0,0,0-2.91-1.31,4,4,0,0,0-1.73.34,3.21,3.21,0,0,0-1.22,1,4.47,4.47,0,0,0-.73,1.57,8.42,8.42,0,0,0-.24,2.1,6.09,6.09,0,0,0,1,3.65A3.44,3.44,0,0,0,436.61,190.18Z" style="fill:#282828"/><path d="M460.12,180.81a.51.51,0,0,1-.48.29.86.86,0,0,1-.44-.15l-.61-.32a6.14,6.14,0,0,0-.85-.32,4.06,4.06,0,0,0-1.17-.15,3.41,3.41,0,0,0-1.05.15,2.42,2.42,0,0,0-.8.41,1.82,1.82,0,0,0-.51.6,1.72,1.72,0,0,0-.17.75,1.29,1.29,0,0,0,.29.85,2.47,2.47,0,0,0,.77.58,7.63,7.63,0,0,0,1.1.44l1.25.4c.43.14.85.3,1.25.47a4.77,4.77,0,0,1,1.1.65,2.84,2.84,0,0,1,1.06,2.32,4.41,4.41,0,0,1-.32,1.68,3.76,3.76,0,0,1-1,1.34,4.75,4.75,0,0,1-1.56.89,6.37,6.37,0,0,1-2.14.33,6.61,6.61,0,0,1-2.49-.45,6.46,6.46,0,0,1-1.9-1.15l.55-.89a.87.87,0,0,1,.24-.26.7.7,0,0,1,.37-.09.87.87,0,0,1,.49.18,7,7,0,0,0,.63.41,5.48,5.48,0,0,0,.9.4,4.23,4.23,0,0,0,1.33.18,3.77,3.77,0,0,0,1.18-.17,2.59,2.59,0,0,0,.85-.48,2,2,0,0,0,.5-.69,2.08,2.08,0,0,0,.16-.83,1.41,1.41,0,0,0-.29-.9,2.37,2.37,0,0,0-.77-.61,6.62,6.62,0,0,0-1.1-.45l-1.26-.39q-.64-.21-1.26-.48a4,4,0,0,1-1.1-.67,3.17,3.17,0,0,1-.78-1,3.3,3.3,0,0,1-.29-1.44,3.5,3.5,0,0,1,.31-1.45,3.58,3.58,0,0,1,.91-1.22,4.56,4.56,0,0,1,1.47-.84,5.82,5.82,0,0,1,2-.31,6.29,6.29,0,0,1,2.33.41,5.55,5.55,0,0,1,1.79,1.12Z" style="fill:#282828"/><path d="M469.26,178.43a6.73,6.73,0,0,1,2.6.48,5.63,5.63,0,0,1,2,1.37,6.09,6.09,0,0,1,1.25,2.13,8.58,8.58,0,0,1,.44,2.81,8.44,8.44,0,0,1-.44,2.8,6,6,0,0,1-1.25,2.14,5.45,5.45,0,0,1-2,1.35,6.73,6.73,0,0,1-2.6.48,6.83,6.83,0,0,1-2.62-.48,5.29,5.29,0,0,1-2-1.35A5.92,5.92,0,0,1,463.4,188a8.44,8.44,0,0,1-.43-2.8,8.59,8.59,0,0,1,.43-2.81,6,6,0,0,1,1.26-2.13,5.46,5.46,0,0,1,2-1.37A6.83,6.83,0,0,1,469.26,178.43Zm0,11.75a3.37,3.37,0,0,0,2.91-1.3,7.46,7.46,0,0,0,0-7.32,3.38,3.38,0,0,0-2.91-1.31,4,4,0,0,0-1.72.34,3.14,3.14,0,0,0-1.22,1,4.3,4.3,0,0,0-.73,1.57,8.42,8.42,0,0,0-.24,2.1,6,6,0,0,0,1,3.65A3.41,3.41,0,0,0,469.26,190.18Z" style="fill:#282828"/><path d="M478.45,191.81V178.64h1.39a.57.57,0,0,1,.61.48l.17,1.35a6.67,6.67,0,0,1,1.64-1.47,3.9,3.9,0,0,1,2.11-.57,3.12,3.12,0,0,1,2.15.74,4.26,4.26,0,0,1,1.19,2,4.26,4.26,0,0,1,.73-1.23,4.31,4.31,0,0,1,1-.86,4.27,4.27,0,0,1,1.19-.49,5,5,0,0,1,1.28-.16,4.88,4.88,0,0,1,1.85.33,3.76,3.76,0,0,1,1.38,1,4.33,4.33,0,0,1,.86,1.57,6.87,6.87,0,0,1,.3,2.12v8.39H494v-8.39a3.53,3.53,0,0,0-.68-2.34,2.39,2.39,0,0,0-1.95-.8,2.89,2.89,0,0,0-1.09.2,2.56,2.56,0,0,0-.9.59,2.79,2.79,0,0,0-.62,1,3.86,3.86,0,0,0-.22,1.37v8.39H486.2v-8.39a3.65,3.65,0,0,0-.64-2.36,2.25,2.25,0,0,0-1.86-.78,2.86,2.86,0,0,0-1.58.46,5.23,5.23,0,0,0-1.34,1.25v9.82Z" style="fill:#282828"/><path d="M510.52,190a4.31,4.31,0,0,1-1,.91,6.62,6.62,0,0,1-1.28.63,9.11,9.11,0,0,1-1.41.37,8.75,8.75,0,0,1-1.44.12,6.6,6.6,0,0,1-2.51-.46,5.49,5.49,0,0,1-2-1.35,6.21,6.21,0,0,1-1.31-2.21,9,9,0,0,1-.47-3,7.76,7.76,0,0,1,.42-2.58,6.1,6.1,0,0,1,1.22-2.07,5.45,5.45,0,0,1,1.94-1.38,6.4,6.4,0,0,1,2.57-.5,5.8,5.8,0,0,1,2.19.4,4.87,4.87,0,0,1,1.74,1.14,5.1,5.1,0,0,1,1.15,1.85,6.93,6.93,0,0,1,.42,2.5,1.49,1.49,0,0,1-.12.73.48.48,0,0,1-.44.18h-8.8a8,8,0,0,0,.34,2.17,4.32,4.32,0,0,0,.86,1.54,3.32,3.32,0,0,0,1.3.92,4.32,4.32,0,0,0,1.69.31,5.09,5.09,0,0,0,1.5-.2,7.09,7.09,0,0,0,1.08-.44,6.86,6.86,0,0,0,.76-.43,1,1,0,0,1,.53-.2.5.5,0,0,1,.44.22Zm-1.87-6.17a4.64,4.64,0,0,0-.23-1.48,3.4,3.4,0,0,0-.66-1.16,3,3,0,0,0-1.06-.75,4,4,0,0,0-4.05.7,4.49,4.49,0,0,0-1.2,2.69Z" style="fill:#282828"/><path d="M517.52,192a3.15,3.15,0,0,1-2.4-.88,3.45,3.45,0,0,1-.84-2.5v-8.07h-1.59a.53.53,0,0,1-.35-.12.49.49,0,0,1-.14-.38v-.92l2.16-.28.53-4.07a.57.57,0,0,1,.18-.31.48.48,0,0,1,.35-.13h1.17v4.54h3.81v1.67h-3.81v7.91a1.66,1.66,0,0,0,.41,1.23,1.4,1.4,0,0,0,1,.41,2,2,0,0,0,.63-.1c.17-.07.33-.14.46-.21l.33-.22a.47.47,0,0,1,.24-.1.4.4,0,0,1,.32.22l.68,1.11a4.53,4.53,0,0,1-1.44.88A5,5,0,0,1,517.52,192Z" style="fill:#282828"/><path d="M525.12,180.39A7.27,7.27,0,0,1,527,179a5.17,5.17,0,0,1,2.37-.53,4.7,4.7,0,0,1,1.9.36,3.69,3.69,0,0,1,1.38,1,4.51,4.51,0,0,1,.84,1.58,6.93,6.93,0,0,1,.29,2v8.39h-2.33v-8.39a3.58,3.58,0,0,0-.68-2.32,2.55,2.55,0,0,0-2.08-.82,3.85,3.85,0,0,0-1.91.49,6.28,6.28,0,0,0-1.65,1.34v9.7h-2.33V172.66h2.33Z" style="fill:#282828"/><path d="M540.24,174.5a1.46,1.46,0,0,1-.14.63,1.91,1.91,0,0,1-.36.53,1.58,1.58,0,0,1-.53.35,1.61,1.61,0,0,1-.65.13,1.51,1.51,0,0,1-.63-.13,1.6,1.6,0,0,1-.51-.35,1.69,1.69,0,0,1-.35-.53,1.45,1.45,0,0,1-.13-.63,1.56,1.56,0,0,1,.13-.64,1.58,1.58,0,0,1,.35-.53,1.82,1.82,0,0,1,.51-.36,1.51,1.51,0,0,1,.63-.13,1.61,1.61,0,0,1,.65.13,1.71,1.71,0,0,1,.89.89A1.57,1.57,0,0,1,540.24,174.5Zm-.49,4.14v13.17h-2.32V178.64Z" style="fill:#282828"/><path d="M545.73,180.55a6.79,6.79,0,0,1,.91-.87,6.18,6.18,0,0,1,1-.67,5.05,5.05,0,0,1,1.14-.43,5.41,5.41,0,0,1,1.31-.15,4.7,4.7,0,0,1,1.9.36,3.69,3.69,0,0,1,1.38,1,4.51,4.51,0,0,1,.84,1.58,6.94,6.94,0,0,1,.28,2v8.39h-2.32v-8.39a3.53,3.53,0,0,0-.69-2.32,2.52,2.52,0,0,0-2.07-.82,3.92,3.92,0,0,0-1.92.49,6.4,6.4,0,0,0-1.64,1.34v9.7h-2.33V178.64h1.39a.56.56,0,0,1,.61.48Z" style="fill:#282828"/><path d="M569.16,179.16V180q0,.42-.54.54l-1.5.2a4.3,4.3,0,0,1,.07,3.64,3.78,3.78,0,0,1-1,1.35,4.53,4.53,0,0,1-1.56.86,6.21,6.21,0,0,1-2,.3,6.91,6.91,0,0,1-1.74-.22,2.22,2.22,0,0,0-.64.55.94.94,0,0,0-.22.59.8.8,0,0,0,.38.71,2.78,2.78,0,0,0,1,.34,11.31,11.31,0,0,0,1.42.13l1.64.09a14.41,14.41,0,0,1,1.64.2,4.65,4.65,0,0,1,1.42.47,2.63,2.63,0,0,1,1,.89,2.68,2.68,0,0,1,.38,1.49,3.44,3.44,0,0,1-.42,1.63,4.47,4.47,0,0,1-1.21,1.41,6,6,0,0,1-1.95,1,8.31,8.31,0,0,1-2.59.37,10,10,0,0,1-2.52-.28,6,6,0,0,1-1.8-.77,3.41,3.41,0,0,1-1.07-1.11,2.62,2.62,0,0,1-.36-1.32,2.4,2.4,0,0,1,.61-1.65,4.28,4.28,0,0,1,1.68-1.08,2.48,2.48,0,0,1-.93-.7,1.83,1.83,0,0,1-.34-1.17,1.89,1.89,0,0,1,.1-.6,2.76,2.76,0,0,1,.32-.61,3.45,3.45,0,0,1,1.25-1.06,4.14,4.14,0,0,1-1.69-5.29,3.77,3.77,0,0,1,1-1.34,4.7,4.7,0,0,1,1.58-.85,6.42,6.42,0,0,1,2-.3,6.32,6.32,0,0,1,1.6.19,5,5,0,0,1,1.35.55Zm-2.35,13.36a1.12,1.12,0,0,0-.27-.78,1.89,1.89,0,0,0-.74-.47,4.85,4.85,0,0,0-1.07-.24l-1.29-.11-1.39-.07c-.46,0-.92-.07-1.35-.13a3.52,3.52,0,0,0-1.19.85,1.72,1.72,0,0,0-.46,1.2,1.59,1.59,0,0,0,.23.82,1.93,1.93,0,0,0,.69.67,4.48,4.48,0,0,0,1.18.44,7.45,7.45,0,0,0,1.67.16,7.24,7.24,0,0,0,1.68-.17,4.08,4.08,0,0,0,1.25-.48,2.36,2.36,0,0,0,.79-.74A1.73,1.73,0,0,0,566.81,192.52Zm-4.17-7.15a3.53,3.53,0,0,0,1.23-.19,2.4,2.4,0,0,0,.9-.55,2.32,2.32,0,0,0,.55-.84,3,3,0,0,0,.18-1.07,2.54,2.54,0,0,0-.74-1.92,2.9,2.9,0,0,0-2.12-.72,2.93,2.93,0,0,0-2.14.72,2.53,2.53,0,0,0-.73,1.92,3,3,0,0,0,.18,1.07,2.22,2.22,0,0,0,.56.84,2.44,2.44,0,0,0,.89.55A3.63,3.63,0,0,0,562.64,185.37Z" style="fill:#282828"/><polyline points="104.11 146.77 104.11 164.43 451.18 164.43 451.18 153.04" style="fill:none;stroke:#ccab23;stroke-miterlimit:10"/><polygon points="451.18 148.73 453.66 154.8 451.18 153.36 448.7 154.8 451.18 148.73" style="fill:#ccab23"/><polyline points="183.8 119.63 183.8 109.96 475.87 109.96 475.87 113.64" style="fill:none;stroke:#7a22e0;stroke-miterlimit:10"/><polygon points="475.87 117.67 473.55 112 475.87 113.34 478.19 112 475.87 117.67" style="fill:#7a22e0"/><rect x="209.48" y="153.19" width="39.41" height="20.74" style="fill:#fff"/><rect x="265.13" y="97.41" width="39.41" height="20.74" style="fill:#fff"/><path d="M222.69,169.6v1.2H215.9v-1.2h2.72V161c0-.25,0-.52,0-.78l-2.25,1.94a.73.73,0,0,1-.23.12.81.81,0,0,1-.22,0,.67.67,0,0,1-.18-.07.77.77,0,0,1-.13-.12l-.49-.68,3.78-3.26h1.28v11.5Z" style="fill:#ccab23"/><path d="M232.68,169.31a.54.54,0,0,1,.41.15.53.53,0,0,1,.15.39v1h-8.46v-.54a1.09,1.09,0,0,1,.07-.34,1,1,0,0,1,.22-.33l4.07-4.08c.33-.34.64-.67.92-1a7.28,7.28,0,0,0,.7-1,4.43,4.43,0,0,0,.46-1,3.6,3.6,0,0,0,.15-1.05,2.49,2.49,0,0,0-.17-1,1.86,1.86,0,0,0-1.21-1.11,2.82,2.82,0,0,0-.89-.13,2.56,2.56,0,0,0-.89.14,2.17,2.17,0,0,0-.72.39,2.33,2.33,0,0,0-.53.6,2.42,2.42,0,0,0-.3.76.7.7,0,0,1-.29.41.8.8,0,0,1-.51.06l-.82-.14a4.56,4.56,0,0,1,.48-1.54,3.64,3.64,0,0,1,2.15-1.8,4.6,4.6,0,0,1,1.51-.24,4.54,4.54,0,0,1,1.5.24,3.51,3.51,0,0,1,1.22.7,3.1,3.1,0,0,1,.8,1.11,3.49,3.49,0,0,1,.29,1.48,4,4,0,0,1-.21,1.32,5.13,5.13,0,0,1-.57,1.15,9.16,9.16,0,0,1-.84,1.07c-.32.35-.65.7-1,1.06L227,169.52a6.14,6.14,0,0,1,.72-.15,4.23,4.23,0,0,1,.7-.06Z" style="fill:#ccab23"/><path d="M244,164.47a10.2,10.2,0,0,1-.36,2.88,6.08,6.08,0,0,1-1,2,3.94,3.94,0,0,1-1.46,1.19,4.3,4.3,0,0,1-1.81.39,4.23,4.23,0,0,1-1.81-.39,4,4,0,0,1-1.46-1.19,6.07,6.07,0,0,1-1-2,10.23,10.23,0,0,1-.35-2.88,10.35,10.35,0,0,1,.35-2.89,6.23,6.23,0,0,1,1-2,4,4,0,0,1,1.46-1.19,4.23,4.23,0,0,1,1.81-.39,4.3,4.3,0,0,1,1.81.39,3.94,3.94,0,0,1,1.46,1.19,6.24,6.24,0,0,1,1,2A10.32,10.32,0,0,1,244,164.47Zm-1.64,0a10.52,10.52,0,0,0-.24-2.44,4.91,4.91,0,0,0-.66-1.59,2.41,2.41,0,0,0-.95-.86,2.59,2.59,0,0,0-1.12-.26,2.63,2.63,0,0,0-1.13.26,2.38,2.38,0,0,0-.94.86,4.91,4.91,0,0,0-.65,1.59,10,10,0,0,0-.25,2.44,9.81,9.81,0,0,0,.25,2.43,5,5,0,0,0,.65,1.59,2.46,2.46,0,0,0,.94.86,2.63,2.63,0,0,0,1.13.26,2.59,2.59,0,0,0,1.12-.26,2.49,2.49,0,0,0,.95-.86,5,5,0,0,0,.66-1.59A10.37,10.37,0,0,0,242.31,164.47Z" style="fill:#ccab23"/><path d="M286.05,106.57h0a3.5,3.5,0,0,1,.05,5l-.05,0-2.86,2.81a3.5,3.5,0,0,1-4.95.05l-.05-.05h0a3.5,3.5,0,0,1-.05-4.95l.05-.05.86-.86" style="fill:none;stroke:#7a22e0;stroke-linecap:round;stroke-linejoin:round;stroke-width:2px"/><path d="M283.67,109h0a3.5,3.5,0,0,1-.05-4.95l.05-.05,2.81-2.81a3.5,3.5,0,0,1,4.95-.05l.05.05h0a3.5,3.5,0,0,1,0,4.95l0,.05-.86.86" style="fill:none;stroke:#7a22e0;stroke-linecap:round;stroke-linejoin:round;stroke-width:2px"/></svg>